<svg version="1.1" id="Layer_1" xmlns="http://www.w3.org/2000/svg" xmlns:xlink="http://www.w3.org/1999/xlink" x="0px" y="0px"
	 width="100%" viewBox="0 0 320 320" enable-background="new 0 0 320 320" xml:space="preserve">
<path fill="#FFFFFF" opacity="1.000000" stroke="none" 
	d="
M194.000000,321.000000 
	C129.333374,321.000000 65.166740,321.000000 1.000086,321.000000 
	C1.000057,214.333435 1.000057,107.666870 1.000029,1.000229 
	C107.666504,1.000153 214.333008,1.000153 320.999634,1.000076 
	C320.999756,107.666435 320.999756,214.332870 320.999878,320.999634 
	C278.833344,321.000000 236.666672,321.000000 194.000000,321.000000 
M77.226204,225.338928 
	C77.485428,225.552490 77.744644,225.766052 78.002007,225.994537 
	C78.002007,225.994537 78.018166,226.000061 77.985275,226.752625 
	C77.349815,229.738510 76.496704,232.405029 81.115334,233.434006 
	C82.942871,233.841171 84.177223,236.910843 85.681664,238.768219 
	C87.488770,240.479858 89.635597,242.095856 91.947685,243.424179 
	C94.244736,244.743896 96.707993,245.774338 99.021538,246.992416 
	C99.021538,246.992416 99.062134,246.903275 99.033287,247.671005 
	C100.450630,254.671082 106.540634,253.669495 111.748619,254.884521 
	C111.748619,254.884521 112.019081,255.179657 112.280663,255.572708 
	C112.520248,255.806015 112.807220,255.918701 113.049133,255.960419 
	C113.049133,255.960419 113.089966,255.863724 113.123154,256.573761 
	C118.774704,261.237030 124.585732,265.472229 133.089035,263.731232 
	C133.397705,263.863281 133.706360,263.995361 134.490921,264.622314 
	C135.164398,264.694946 135.837875,264.767548 137.026093,264.798035 
	C137.347900,264.915924 137.669724,265.033783 138.008835,265.889587 
	C139.679474,269.337891 144.394943,269.888763 147.688721,266.832520 
	C148.130814,266.935577 148.572906,267.038635 149.289139,267.541138 
	C149.843719,267.473602 150.398285,267.406067 151.653763,267.241730 
	C152.094437,267.380249 152.535095,267.518799 153.238571,268.250000 
	C155.509109,268.727722 157.859589,272.105804 160.827225,267.905609 
	C162.216385,267.962646 163.605560,268.019684 165.143356,268.783295 
	C169.259796,269.478363 173.524368,271.253387 177.617172,266.895081 
	C178.070770,266.907501 178.524368,266.919891 179.283142,267.554596 
	C184.672318,269.815674 190.208725,268.317108 192.974182,263.965942 
	C192.974182,263.965942 192.876694,263.901978 193.768768,263.978912 
	C198.822433,262.779785 203.967468,261.855621 208.877472,260.224091 
	C210.475006,259.693207 211.458679,257.314880 212.745300,255.805481 
	C212.745300,255.805481 212.776260,255.812485 213.278122,255.785019 
	C213.513367,255.559219 213.748611,255.333405 214.425262,254.650223 
	C215.545654,254.071335 216.666046,253.492447 218.278183,252.830811 
	C218.603500,252.698349 218.836517,252.471191 219.190948,251.872345 
	C219.190948,251.872345 219.538025,251.828217 220.416519,251.924026 
	C223.316147,252.337662 225.503021,251.878799 225.203812,247.722076 
	C225.203812,247.722076 225.311508,247.263016 225.199860,247.203979 
	C225.199860,247.203979 225.229431,247.326767 225.810455,247.187057 
	C226.178528,247.039352 226.546585,246.891647 227.235611,247.295532 
	C230.226242,247.786804 232.641205,247.770630 233.843994,243.982025 
	C234.412399,242.191605 236.477341,240.205597 238.289383,239.616943 
	C242.361450,238.294113 242.643433,235.247162 242.972855,231.984283 
	C242.972855,231.984283 242.940964,231.964355 243.468216,231.701096 
	C243.658905,231.362457 243.849594,231.023834 244.159927,230.268234 
	C244.472946,229.977493 244.785965,229.686752 245.916412,229.706985 
	C249.491531,229.881500 248.808350,227.153915 249.765366,224.904221 
	C250.751297,222.901749 256.603760,223.215210 252.857178,218.222626 
	C253.045273,217.816788 253.233383,217.410950 254.156250,216.987289 
	C255.084976,215.559982 256.013702,214.132675 256.942413,212.705353 
	C256.100647,212.171524 255.228622,211.140167 254.422318,211.189240 
	C250.760666,211.412079 246.704697,215.953033 246.109253,220.074692 
	C246.109253,220.074692 246.165878,220.091980 245.657867,220.213730 
	C245.438751,220.474533 245.219620,220.735321 244.950500,221.330109 
	C244.950500,221.330109 244.899902,221.664017 244.361862,221.757324 
	C244.021362,221.880325 243.680847,222.003326 242.783447,222.209900 
	C242.526932,222.471008 242.270416,222.732117 242.004486,223.006180 
	C242.004486,223.006180 241.989578,223.011887 241.568558,223.147583 
	C241.301498,223.293930 241.096313,223.501465 240.725296,224.151566 
	C240.725296,224.151566 240.585709,224.573242 240.957260,224.900589 
	C240.957260,224.900589 240.609543,224.548004 240.063278,224.630005 
	C239.709000,224.716599 239.354706,224.803192 238.879288,224.229248 
	C238.219101,224.003189 237.377838,223.398071 236.928207,223.612823 
	C234.079941,224.973328 231.376022,226.639465 228.514786,227.968613 
	C224.059402,230.038269 219.516556,231.919708 214.323257,234.156006 
	C213.591156,234.231323 212.859039,234.306656 211.814301,233.786850 
	C210.213425,234.163147 208.612549,234.539459 206.108749,235.131882 
	C202.400986,235.054123 198.693237,234.976364 194.397827,234.355789 
	C193.050201,234.301025 191.702576,234.246277 189.695786,234.421555 
	C188.791458,234.233292 187.887146,234.045029 186.480545,233.308304 
	C184.462250,232.927780 182.443954,232.547272 180.179703,232.262970 
	C180.179703,232.262970 179.997055,232.072189 179.932861,231.354584 
	C178.286819,229.960968 176.479614,227.230240 175.022675,227.405838 
	C168.807922,228.154877 165.844543,223.154953 160.060654,221.174164 
	C165.911484,218.247421 169.341583,221.514069 173.209412,222.630646 
	C175.015518,223.152054 177.151031,222.532349 179.802979,222.533295 
	C180.201996,222.735092 180.601013,222.936890 181.017365,223.872910 
	C183.546906,227.312180 184.918503,227.525299 187.772537,224.783966 
	C188.539307,224.958038 189.306076,225.132095 190.580032,225.728806 
	C191.237045,225.760147 191.894058,225.791473 192.791153,225.672760 
	C192.791153,225.672760 193.019257,225.840500 193.132965,226.615265 
	C195.547714,228.590317 197.876801,229.104675 200.794785,226.059341 
	C201.861954,226.096512 202.929108,226.133682 204.160980,226.869202 
	C206.144730,228.410217 207.961639,229.121536 209.545990,225.545517 
	C209.981476,225.538269 210.416977,225.531021 211.263824,226.235611 
	C214.411133,227.347687 217.397766,227.928650 219.186127,223.708878 
	C219.186127,223.708878 219.437149,223.816574 220.020905,223.822571 
	C220.335098,223.613815 220.649307,223.405075 221.562607,222.886459 
	C222.002457,222.808716 222.442322,222.730988 223.265594,223.294617 
	C224.106964,222.683792 224.948349,222.072968 226.268906,221.142761 
	C226.815033,220.966660 227.361176,220.790558 228.152954,221.283844 
	C228.947205,221.721909 230.128830,222.742584 230.477570,222.510666 
	C235.754532,219.001816 241.437454,215.868454 245.970566,211.542053 
	C250.499725,207.219376 256.566650,204.035828 258.601776,197.421371 
	C259.687408,193.892838 260.748505,190.356766 261.778687,186.929886 
	C261.778687,186.929886 261.766113,186.816772 262.532562,186.867081 
	C265.440643,185.762207 265.861481,184.110092 263.706787,181.194565 
	C263.891602,180.779602 264.076416,180.364655 264.646118,179.587250 
	C264.707214,179.245239 264.768311,178.903244 264.768127,177.884705 
	C264.959076,177.234756 265.149994,176.584808 265.697723,175.532761 
	C265.738739,175.179550 265.779724,174.826355 265.714081,173.843246 
	C265.876312,173.230408 266.038544,172.617584 266.807404,171.893387 
	C266.700256,171.218048 266.593109,170.542725 266.524445,168.948395 
	C266.678619,163.628311 266.832794,158.308212 267.618744,152.915985 
	C267.170319,151.609146 266.721924,150.302307 266.001099,148.259140 
	C265.841644,147.225525 265.682159,146.191895 266.218597,144.767929 
	C267.327667,142.759537 267.532471,141.190018 264.184906,140.727798 
	C264.030212,140.006485 263.875549,139.285187 264.033722,137.842880 
	C263.680328,135.543655 263.874542,132.962128 262.863953,131.001709 
	C260.475647,126.368774 257.599365,121.974037 254.684753,117.641541 
	C254.288422,117.052414 252.540878,117.372307 250.947769,116.911484 
	C249.927383,115.694405 248.906998,114.477333 247.937119,112.427551 
	C246.792755,111.682465 245.648392,110.937370 244.163315,110.106346 
	C243.949539,109.984955 243.801086,109.808578 243.834076,108.831299 
	C243.317902,104.195328 244.755234,103.314217 249.457855,104.464813 
	C250.910019,104.820122 252.794800,103.407196 254.481506,102.803879 
	C253.616180,101.568497 252.849548,100.246475 251.860397,99.119781 
	C250.637268,97.726555 249.309723,96.396904 247.874039,95.227989 
	C246.863220,94.404968 245.596970,93.895676 244.031494,92.933052 
	C243.511887,92.494911 242.992264,92.056763 242.387115,91.618370 
	C242.387115,91.618370 242.380569,91.533089 242.272186,91.128433 
	C242.132629,90.866692 241.920380,90.694595 241.532364,90.527138 
	C241.532364,90.527138 241.472290,90.407784 241.242584,89.920235 
	C240.831299,89.605515 240.420013,89.290794 239.999191,89.002174 
	C239.999191,89.002174 240.024887,88.991226 239.981461,88.551086 
	C239.981461,88.551086 239.952805,88.109741 239.775909,87.618286 
	C239.493698,87.427185 239.211472,87.236084 238.995651,87.004372 
	C238.995651,87.004372 238.954605,87.070496 238.765076,86.593460 
	C238.483917,86.411591 238.202774,86.229721 237.994446,86.012077 
	C237.994446,86.012077 237.953583,86.082176 237.736664,85.589027 
	C237.432556,85.413872 237.128464,85.238716 236.452759,85.042831 
	C236.452759,85.042831 236.086456,84.976883 235.909897,84.465431 
	C235.484131,84.143990 235.058365,83.822548 234.509262,83.439598 
	C234.509262,83.439598 234.432602,83.325058 234.179016,82.856850 
	C233.626846,82.427818 233.074677,81.998787 232.427582,81.573967 
	C232.427582,81.573967 232.428558,81.478943 232.259415,81.105095 
	C232.028687,80.938278 231.867447,80.720078 231.854111,79.689705 
	C230.596436,78.764481 229.338745,77.839256 228.001526,76.125763 
	C226.555756,75.472984 225.110001,74.820213 223.270676,74.073669 
	C223.270676,74.073669 223.008377,73.765640 222.867249,73.118622 
	C222.129196,72.792068 221.391129,72.465523 220.273666,72.072525 
	C220.273666,72.072525 220.013962,71.788025 220.008224,71.020073 
	C219.885864,63.186913 213.802383,67.538567 209.947983,66.226501 
	C209.622452,66.187881 209.296921,66.149254 208.985977,65.920837 
	C208.985977,65.920837 209.042389,65.739044 208.752594,65.381729 
	C208.511353,65.168388 208.229721,65.063286 207.245392,65.002975 
	C206.605591,64.833221 205.965805,64.663460 205.313446,64.659256 
	C205.313446,64.659256 205.416412,64.529007 205.257843,64.172646 
	C205.257843,64.172646 205.024200,63.860317 204.631012,63.428032 
	C204.257721,63.340397 203.884445,63.252766 203.197495,63.193748 
	C203.197495,63.193748 202.999527,62.948780 202.833710,62.190544 
	C201.390625,61.848305 199.947540,61.506065 197.965363,61.194462 
	C197.634369,61.060024 197.303360,60.925587 196.568665,60.377365 
	C196.193893,60.312656 195.819107,60.247948 194.777145,60.165718 
	C193.512527,59.751266 192.247925,59.336811 190.511475,58.406914 
	C189.826889,58.329067 189.142288,58.251221 187.941940,58.259365 
	C187.621536,58.131252 187.301117,58.003139 186.567932,57.405468 
	C185.966248,57.378693 185.364578,57.351921 184.728897,57.354912 
	C184.728897,57.354912 184.689484,57.377048 184.802933,56.630245 
	C182.988312,56.487957 181.173706,56.345669 178.797653,56.499485 
	C178.197678,56.339516 177.597717,56.179546 176.895844,55.345116 
	C174.231323,55.330933 171.566788,55.316750 168.018738,55.439259 
	C164.533035,55.330864 161.047318,55.222466 156.606018,55.043827 
	C154.335220,54.740517 152.072220,54.333321 149.791504,54.162495 
	C147.409851,53.984108 144.597504,53.161018 143.371780,57.101078 
	C142.934967,57.124443 142.498169,57.147804 141.648560,56.587322 
	C140.433075,57.068527 139.217575,57.549728 137.372101,58.391796 
	C135.966309,58.748554 134.560501,59.105312 132.782013,58.788280 
	C128.115402,57.179070 122.856834,59.386494 120.709900,64.092827 
	C120.709900,64.092827 120.550812,64.459976 121.012993,64.971184 
	C120.857208,64.802887 120.701431,64.634598 119.897766,64.554024 
	C119.264885,64.706573 118.632011,64.859123 117.910957,64.364273 
	C114.774963,62.908794 113.626671,64.483536 113.315384,67.392250 
	C113.315384,67.392250 113.317276,67.427238 112.451126,67.190140 
	C109.885414,67.812218 107.091675,67.984909 104.800316,69.147652 
	C99.641182,71.765617 94.314026,74.399002 90.872650,79.315697 
	C89.243927,81.642670 88.274513,84.431114 86.999840,86.999695 
	C86.999840,86.999695 87.010796,87.006104 86.253418,87.005127 
	C77.917915,89.380241 75.156265,92.772232 74.219276,101.124741 
	C73.865204,102.188202 73.511124,103.251663 73.048355,104.857719 
	C72.971092,105.213219 72.893822,105.568726 72.917648,105.908508 
	C72.917648,105.908508 72.867928,105.819084 72.464279,105.909279 
	C72.464279,105.909279 72.066254,106.022293 71.578934,106.284348 
	C71.466034,106.622040 71.353134,106.959724 71.253433,107.336029 
	C71.253433,107.336029 71.282028,107.365547 70.552795,107.248039 
	C68.826378,108.100906 67.099968,108.953773 65.814163,109.588966 
	C65.332832,112.099648 65.647255,114.988327 64.357681,116.299812 
	C61.064377,119.649086 61.261436,123.240929 62.032005,127.946754 
	C61.286121,130.660507 60.496948,133.363205 59.801357,136.089798 
	C55.172432,154.234329 56.048340,172.333435 59.945583,191.187210 
	C58.974342,194.260269 61.991623,204.604019 64.525002,206.511887 
	C64.929718,206.816681 65.758598,206.558228 66.382896,206.625488 
	C66.382896,206.625488 66.346283,206.679413 66.278542,207.212036 
	C66.505516,207.472687 66.732491,207.733322 67.191330,208.230164 
	C67.191330,208.230164 67.153496,208.558990 67.209915,209.143219 
	C67.464676,209.427200 67.719437,209.711166 68.233170,210.188522 
	C68.233170,210.188522 68.256081,210.510895 68.082558,211.280167 
	C66.539467,216.390137 67.568153,217.894196 72.863342,218.119064 
	C73.001854,218.513931 73.140358,218.908813 73.124100,220.207367 
	C72.837822,222.614944 73.151543,224.470673 76.277748,223.882202 
	C76.277748,223.882202 76.265274,223.685745 76.295815,224.252838 
	C76.587891,224.468124 76.879967,224.683395 77.078201,224.929291 
	C77.078201,224.929291 77.109985,224.835846 77.226204,225.338928 
M263.671753,122.222557 
	C263.414093,121.620415 263.156403,121.018265 262.898743,120.416122 
	C262.401947,120.907082 261.905121,121.398048 261.408325,121.889008 
	C262.007324,122.153580 262.606354,122.418144 263.671753,122.222557 
M147.105621,270.611511 
	C146.997009,271.273651 146.888382,271.935822 146.779770,272.597961 
	C147.350739,272.532867 147.921692,272.467773 148.492676,272.402679 
	C148.227554,271.716309 147.962433,271.029968 147.105621,270.611511 
M184.517349,230.409912 
	C184.517349,230.409912 184.585587,230.523270 184.517349,230.409912 
z"/>
<path fill="#164D95" opacity="1.000000" stroke="none" 
	d="
M134.015030,264.127411 
	C133.706360,263.995361 133.397705,263.863281 132.554169,263.511963 
	C125.709518,260.816376 119.399742,258.340027 113.089966,255.863724 
	C113.089966,255.863724 113.049133,255.960419 112.993790,255.705322 
	C112.631989,255.360031 112.325539,255.269836 112.019081,255.179657 
	C112.019081,255.179657 111.748619,254.884521 111.342728,254.591736 
	C106.978607,251.833725 103.020370,249.368500 99.062134,246.903275 
	C99.062134,246.903275 99.021538,246.992416 98.965256,246.718674 
	C98.573685,246.055710 98.238403,245.666489 97.888657,244.902222 
	C97.115776,244.164490 96.357353,243.801804 95.572929,243.309784 
	C95.546928,243.180466 95.633469,243.429398 95.629967,243.121063 
	C95.269089,242.728470 94.911713,242.644226 94.561134,242.467468 
	C94.567932,242.374969 94.476112,242.536148 94.523987,242.198532 
	C94.002190,241.590240 93.432533,241.319550 92.639755,241.003448 
	C92.111374,240.815674 91.944038,240.576736 91.805740,239.957397 
	C91.350311,239.484467 91.003792,239.295349 90.462227,239.063004 
	C90.014969,238.867691 89.889084,238.644409 89.807098,238.053848 
	C89.380241,237.565399 89.035820,237.373001 88.769150,237.169556 
	C88.846901,237.158508 88.800186,237.308456 88.748978,237.016403 
	C88.366295,236.543274 88.034821,236.362198 87.779297,236.158325 
	C87.855247,236.135544 87.839157,236.293320 87.759613,235.993683 
	C87.331802,235.497894 86.983543,235.301758 86.442917,235.053558 
	C86.006226,234.839386 85.889229,234.611801 85.820374,234.030579 
	C85.417961,233.530609 85.094757,233.318802 84.840462,233.098114 
	C84.909370,233.089218 84.887131,233.226379 84.804199,232.949097 
	C84.404091,232.472443 84.086922,232.273087 83.516571,231.957352 
	C82.834236,231.249191 82.405075,230.657410 81.956871,229.739532 
	C81.485542,229.049255 81.033249,228.685089 80.758255,228.227554 
	C80.935555,228.134186 80.602768,228.357483 80.687912,228.004410 
	C80.130501,227.135406 79.487946,226.619476 78.898453,226.084290 
	C78.951515,226.065018 78.889915,226.159637 78.896011,225.783752 
	C76.227051,221.642715 73.552002,217.877594 70.892601,214.098206 
	C70.908249,214.083954 70.905197,214.120575 70.939354,213.747742 
	C70.448303,212.784424 69.923096,212.193939 69.405067,211.544312 
	C69.412254,211.485138 69.312286,211.420227 69.489990,211.074615 
	C68.387291,208.512283 67.106880,206.295547 65.876831,204.070618 
	C65.927185,204.062424 65.871872,204.148163 65.917831,203.782379 
	C65.518387,202.677856 65.072990,201.939133 64.693970,201.155701 
	C64.760345,201.110977 64.691170,201.255325 64.786514,200.878494 
	C64.406166,199.799667 63.930473,199.097672 63.444363,198.382980 
	C63.433945,198.370285 63.401009,198.367371 63.558510,197.979599 
	C62.709824,192.595688 61.898441,187.550751 60.661167,182.612518 
	C56.837791,167.352600 57.211185,152.221512 61.406994,137.093353 
	C63.025871,131.256409 64.274010,125.316635 65.693314,119.289597 
	C65.695572,119.155479 65.917267,119.004417 66.254822,118.964790 
	C67.011986,117.592278 67.431595,116.259399 67.884308,114.640732 
	C68.199173,113.878693 68.480934,113.402443 69.033966,112.811256 
	C69.362892,112.335373 69.420540,111.974419 69.551178,111.579781 
	C69.624153,111.546089 69.463394,111.544426 69.820404,111.545280 
	C70.447144,110.686462 70.716873,109.826782 70.996338,108.981201 
	C71.006073,108.995285 70.972107,108.992584 71.331436,108.940559 
	C72.083153,107.865387 72.475548,106.842239 72.867935,105.819084 
	C72.867928,105.819084 72.917648,105.908508 73.196884,105.812523 
	C73.932388,104.749840 74.388649,103.783150 74.867493,102.861359 
	C74.890083,102.906265 74.790199,102.894958 75.120956,102.801659 
	C75.930656,101.755981 76.409607,100.803596 76.920517,99.901451 
	C76.952477,99.951691 76.845192,99.900002 77.206268,99.886047 
	C78.036781,98.898956 78.506226,97.925819 78.989365,96.974640 
	C79.003052,96.996597 78.954651,96.978348 79.311279,96.956779 
	C80.906845,95.148148 82.145790,93.361076 83.437378,91.568336 
	C83.490021,91.562660 83.492004,91.456779 83.819778,91.506104 
	C84.408730,91.002121 84.669899,90.448822 84.951424,89.933777 
	C84.971771,89.972038 84.887451,89.952011 85.141968,89.859344 
	C85.574203,89.463326 85.751930,89.159981 85.936737,88.900436 
	C85.943817,88.944244 85.855721,88.933502 86.120010,88.841148 
	C86.570969,88.437317 86.757637,88.125839 86.970947,87.613121 
	C86.997589,87.411880 87.010796,87.006104 87.010796,87.006104 
	C87.010796,87.006104 86.999840,86.999695 87.260880,86.933472 
	C87.949196,86.558090 88.376472,86.248932 89.071136,85.858086 
	C89.540955,85.475304 89.743393,85.174210 89.955086,84.916672 
	C89.964340,84.960228 89.884529,84.920731 90.275879,84.944511 
	C91.597534,83.831383 92.527840,82.694466 93.502563,81.568962 
	C93.546974,81.580376 93.578773,81.494354 93.872894,81.544525 
	C94.324562,81.267708 94.482101,80.940720 94.829742,80.667908 
	C95.019836,80.722069 94.646759,80.588211 95.001541,80.682236 
	C95.859619,80.121490 96.362915,79.466721 96.908081,78.873383 
	C96.949966,78.934822 96.824188,78.855492 97.207016,78.898323 
	C98.683197,77.899643 99.776558,76.858139 100.910286,75.877235 
	C100.950653,75.937836 100.827599,75.859940 101.166183,75.875153 
	C101.862274,75.432976 102.219780,74.975586 102.556007,74.666580 
	C102.534729,74.814957 102.612503,74.525673 102.901245,74.571503 
	C103.399307,74.317680 103.608635,74.018036 103.835457,73.774643 
	C103.852951,73.830902 103.740570,73.795494 104.012161,73.773468 
	C104.520737,73.490318 104.757729,73.229195 104.996597,72.986526 
	C104.998474,73.004974 104.966667,72.985809 105.345802,72.995132 
	C107.772858,71.607689 109.820770,70.210930 111.907181,68.881508 
	C111.945663,68.948845 111.825272,68.851028 112.235428,68.901245 
	C116.360435,69.361336 118.924217,67.743736 120.545647,64.466301 
	C120.701431,64.634598 120.857208,64.802887 121.181213,64.871780 
	C122.789795,64.495331 124.313042,64.431709 125.658150,63.909378 
	C147.188354,55.548695 169.064224,55.025982 191.246277,60.867840 
	C195.963867,62.110256 200.692734,63.309746 205.416412,64.529007 
	C205.416412,64.529007 205.313446,64.659256 205.377197,64.942230 
	C206.347870,65.434830 207.254776,65.644455 208.382355,65.828934 
	C208.602997,65.803795 209.042389,65.739044 209.042389,65.739044 
	C209.042389,65.739044 208.985977,65.920837 209.141754,66.313782 
	C210.634750,67.269447 211.971954,67.832153 213.345474,68.435738 
	C213.381775,68.476616 213.490738,68.485497 213.492157,68.834915 
	C214.341644,69.448303 215.189728,69.712280 216.022995,69.990891 
	C216.008179,70.005524 216.012985,69.964462 216.144531,70.199890 
	C216.607681,70.532455 216.939301,70.629593 217.148468,70.821693 
	C217.026016,70.916664 217.245224,70.697556 217.310440,70.962448 
	C217.700211,71.249908 218.024750,71.272484 218.427002,71.339333 
	C218.504700,71.383614 218.656540,71.478096 218.560074,71.811737 
	C219.326111,72.746071 220.188614,73.346756 221.207275,74.258682 
	C222.609833,75.011612 223.856247,75.453285 225.050720,75.946091 
	C224.998779,75.997223 225.098053,75.889603 225.116089,76.236313 
	C226.450546,77.369019 227.766983,78.155022 229.049576,78.966492 
	C229.015747,78.991951 229.043304,78.911880 229.146606,79.161423 
	C229.563950,79.561699 229.877991,79.712425 230.129822,79.892494 
	C230.067596,79.921829 230.147995,79.810181 230.157501,80.178009 
	C230.920868,80.856880 231.674713,81.167908 232.428558,81.478943 
	C232.428558,81.478943 232.427582,81.573967 232.360901,81.943512 
	C233.007004,82.650398 233.719803,82.987732 234.432602,83.325058 
	C234.432602,83.325058 234.509262,83.439598 234.498718,83.787498 
	C235.020950,84.415894 235.553696,84.696388 236.086456,84.976883 
	C236.086456,84.976883 236.452759,85.042831 236.676956,85.271347 
	C236.901154,85.499863 237.015640,85.927834 237.038574,86.273674 
	C238.049301,87.410080 239.037094,88.200653 240.024887,88.991226 
	C240.024887,88.991226 239.999191,89.002174 240.031586,89.308464 
	C240.533401,89.879097 241.002853,90.143440 241.472290,90.407784 
	C241.472290,90.407784 241.532364,90.527138 241.505356,90.835373 
	C241.779083,91.273438 242.079834,91.403267 242.380569,91.533096 
	C242.380569,91.533089 242.387115,91.618370 242.322250,91.947601 
	C242.132797,93.541016 242.008209,94.805214 241.561386,95.908417 
	C237.855774,94.182899 234.506836,92.538292 231.083649,91.066368 
	C200.920212,78.096489 165.724579,85.985443 144.623795,110.414421 
	C122.744377,135.744843 119.523537,171.239105 137.006256,199.477539 
	C147.075104,215.740936 161.162857,227.148895 179.997055,232.072189 
	C179.997055,232.072189 180.179703,232.262970 180.591949,232.477188 
	C182.997070,233.079849 184.989944,233.468307 186.982819,233.856750 
	C187.887146,234.045029 188.791458,234.233292 190.339127,234.570099 
	C192.316803,234.778625 193.651138,234.838623 194.985474,234.898621 
	C198.693237,234.976364 202.400986,235.054123 206.928650,235.111176 
	C209.208008,234.854294 210.667465,234.618134 212.126938,234.381989 
	C212.859039,234.306656 213.591156,234.231323 215.066345,234.070847 
	C219.799973,232.954651 223.790482,231.923599 228.199615,230.934845 
	C233.518723,230.519073 237.901642,229.095627 240.609543,224.548004 
	C240.609543,224.548004 240.957260,224.900589 241.062988,224.772400 
	C241.413605,224.364594 241.658478,224.084961 241.908020,223.839783 
	C241.912689,223.874237 241.861252,223.826630 242.211517,223.854385 
	C243.341156,223.142761 244.120529,222.403381 244.899902,221.664017 
	C244.899902,221.664017 244.950500,221.330109 245.208374,221.175323 
	C245.466232,221.020523 245.931824,220.992523 246.300903,221.010040 
	C247.484970,221.719833 248.299957,222.412094 249.101837,223.084259 
	C249.088760,223.064163 249.126129,223.085129 248.767456,223.107635 
	C247.943863,224.101852 247.478958,225.073593 246.965698,226.277313 
	C246.783417,226.826233 246.548645,227.022827 245.847824,227.097687 
	C244.003708,229.089035 242.524826,231.081757 241.027115,233.042160 
	C241.008270,233.009827 241.079742,233.032043 240.836853,233.134827 
	C240.425293,233.535309 240.256622,233.832993 240.055832,234.063080 
	C240.023727,233.995499 240.105652,234.121643 239.826431,233.998001 
	C239.071945,234.634415 238.596680,235.394470 238.093750,236.108231 
	C238.066086,236.061935 238.169312,236.093155 237.904907,236.172516 
	C237.459869,236.559357 237.279236,236.866837 237.089569,237.127533 
	C237.080505,237.080750 237.174149,237.098557 236.909439,237.175064 
	C236.459702,237.555786 236.274673,237.859985 236.073944,238.113373 
	C236.058228,238.062561 236.150085,238.116226 235.766998,238.085876 
	C234.592285,239.054245 233.800674,240.052994 232.908081,241.281342 
	C232.520111,241.664764 232.233154,241.818588 231.583282,241.980377 
	C230.541901,242.735443 229.863449,243.482529 229.144348,244.170532 
	C229.103714,244.111450 229.234329,244.170670 228.963181,244.215149 
	C228.482346,244.545380 228.272659,244.831146 228.046448,245.069168 
	C228.029907,245.021423 228.109711,245.083405 227.763672,245.079895 
	C226.688248,245.826508 225.958847,246.576645 225.229431,247.326767 
	C225.229431,247.326767 225.199860,247.203979 224.994095,247.221497 
	C224.533707,247.461487 224.279068,247.683929 223.819656,247.970978 
	C223.614868,248.035553 223.188553,248.087372 222.928757,248.174957 
	C222.474991,248.562225 222.281006,248.861908 222.069443,249.112335 
	C222.051849,249.063095 222.144958,249.110748 221.809235,249.122772 
	C221.185806,249.605972 220.898132,250.077164 220.596817,250.568817 
	C220.583191,250.589279 220.544220,250.619232 220.187988,250.484283 
	C216.893311,252.243530 213.954834,254.137741 210.934708,256.141357 
	C210.853058,256.250732 210.580582,256.234253 210.266815,256.234711 
	C209.637756,256.490997 209.322479,256.746796 208.786850,257.282349 
	C203.336578,259.675354 198.106644,261.788666 192.876694,263.901978 
	C192.876694,263.901978 192.974182,263.965942 192.540955,263.907623 
	C187.731140,264.876984 183.354553,265.904633 178.977966,266.932281 
	C178.524368,266.919891 178.070770,266.907501 176.864197,266.974976 
	C172.405716,267.395508 168.700211,267.736115 164.994720,268.076721 
	C163.605560,268.019684 162.216385,267.962646 160.036789,267.878082 
	C157.156158,267.786133 155.065964,267.721741 152.975769,267.657349 
	C152.535095,267.518799 152.094437,267.380249 150.993134,267.170349 
	C149.893341,267.113190 149.454163,267.127411 149.014999,267.141663 
	C148.572906,267.038635 148.130814,266.935577 147.026688,266.696381 
	C143.573608,266.090698 140.782578,265.621185 137.991531,265.151672 
	C137.669724,265.033783 137.347900,264.915924 136.510895,264.596283 
	C135.335480,264.305481 134.675247,264.216461 134.015030,264.127411 
z"/>
<path fill="#F7F7F8" opacity="1.000000" stroke="none" 
	d="
M179.964966,231.713379 
	C161.162857,227.148895 147.075104,215.740936 137.006256,199.477539 
	C119.523537,171.239105 122.744377,135.744843 144.623795,110.414421 
	C165.724579,85.985443 200.920212,78.096489 231.083649,91.066368 
	C234.506836,92.538292 237.855774,94.182899 241.729141,96.267654 
	C246.258591,97.679642 245.418167,95.504753 244.444763,93.246307 
	C245.596970,93.895676 246.863220,94.404968 247.874039,95.227989 
	C249.309723,96.396904 250.637268,97.726555 251.860397,99.119781 
	C252.849548,100.246475 253.616180,101.568497 254.481506,102.803879 
	C252.794800,103.407196 250.910019,104.820122 249.457855,104.464813 
	C244.755234,103.314217 243.317902,104.195328 243.507645,109.086082 
	C242.827652,109.183472 242.474106,109.026070 241.987122,108.623940 
	C241.387650,108.085220 240.921600,107.791229 240.238998,107.245445 
	C235.483688,104.502472 230.944916,102.011292 226.120636,99.306808 
	C200.354614,89.899773 177.233887,93.501244 156.518738,111.944405 
	C152.751404,116.326981 149.292770,120.585373 145.555603,125.041870 
	C144.159683,127.281853 142.909546,129.263153 141.945618,131.375092 
	C133.321198,150.270935 132.574341,169.199463 141.899948,188.487030 
	C144.432281,192.748611 146.919449,196.656769 149.533020,200.805817 
	C150.043472,201.424179 150.427551,201.801666 150.925629,202.488312 
	C152.889542,204.651825 154.739441,206.506149 156.749176,208.640259 
	C158.099411,209.827286 159.289841,210.734528 160.591522,211.819855 
	C160.882996,212.221512 161.105087,212.389877 161.601227,212.747223 
	C164.164185,214.390457 166.494949,215.789505 169.033096,217.459900 
	C172.539398,219.297455 175.838333,220.863647 179.137253,222.429855 
	C177.151031,222.532349 175.015518,223.152054 173.209412,222.630646 
	C169.341583,221.514069 165.911484,218.247421 160.060654,221.174164 
	C165.844543,223.154953 168.807922,228.154877 175.022675,227.405838 
	C176.479614,227.230240 178.286819,229.960968 179.964966,231.713379 
z"/>
<path fill="#305584" opacity="1.000000" stroke="none" 
	d="
M205.337128,64.350830 
	C200.692734,63.309746 195.963867,62.110256 191.246277,60.867840 
	C169.064224,55.025982 147.188354,55.548695 125.658150,63.909378 
	C124.313042,64.431709 122.789795,64.495331 120.950119,64.616173 
	C120.550812,64.459976 120.709900,64.092827 121.179039,63.903847 
	C125.483688,62.297268 129.319199,60.879673 133.154709,59.462078 
	C134.560501,59.105312 135.966309,58.748554 138.041000,58.265446 
	C139.827057,57.816456 140.944199,57.493813 142.061356,57.171173 
	C142.498169,57.147804 142.934967,57.124443 144.098602,57.024017 
	C149.070816,56.335991 153.316208,55.725033 157.561615,55.114071 
	C161.047318,55.222466 164.533035,55.330864 168.809616,55.559376 
	C172.066238,55.792854 174.531998,55.906216 176.997742,56.019577 
	C177.597717,56.179546 178.197678,56.339516 179.385712,56.619373 
	C181.545670,56.951855 183.117569,57.164452 184.689484,57.377048 
	C184.689484,57.377048 184.728897,57.354912 184.954559,57.560524 
	C185.780396,57.802429 186.380554,57.838726 186.980713,57.875023 
	C187.301117,58.003139 187.621536,58.131252 188.454163,58.452515 
	C189.638687,58.737892 190.310989,58.830128 190.983307,58.922356 
	C192.247925,59.336811 193.512527,59.751266 195.303741,60.399063 
	C196.211029,60.685318 196.591690,60.738235 196.972366,60.791153 
	C197.303360,60.925587 197.634369,61.060024 198.484665,61.437721 
	C200.335815,62.103580 201.667679,62.526180 202.999527,62.948780 
	C202.999527,62.948780 203.197495,63.193748 203.540527,63.412556 
	C204.263779,63.707680 204.643982,63.784000 205.024200,63.860317 
	C205.024200,63.860317 205.257843,64.172646 205.337128,64.350830 
z"/>
<path fill="#305584" opacity="1.000000" stroke="none" 
	d="
M65.691055,119.423714 
	C64.274010,125.316635 63.025871,131.256409 61.406994,137.093353 
	C57.211185,152.221512 56.837791,167.352600 60.661167,182.612518 
	C61.898441,187.550751 62.709824,192.595688 63.372574,197.689484 
	C62.117714,195.324677 61.206295,192.862213 60.294876,190.399750 
	C56.048340,172.333435 55.172432,154.234329 59.801357,136.089798 
	C60.496948,133.363205 61.286121,130.660507 62.318535,127.318497 
	C63.633728,124.268066 64.662392,121.845886 65.691055,119.423714 
z"/>
<path fill="#BF4841" opacity="1.000000" stroke="none" 
	d="
M263.720856,138.563873 
	C263.875549,139.285187 264.030212,140.006485 264.362671,141.308594 
	C264.867828,142.979019 265.195251,144.068649 265.522675,145.158279 
	C265.682159,146.191895 265.841644,147.225525 266.090332,148.967545 
	C266.448700,150.779999 266.717834,151.884064 266.986969,152.988129 
	C266.832794,158.308212 266.678619,163.628311 266.375122,169.652344 
	C266.217468,170.905762 266.209106,171.455261 266.200745,172.004745 
	C266.038544,172.617584 265.876312,173.230408 265.564026,174.349701 
	C265.389587,175.215729 265.365265,175.575287 265.340942,175.934860 
	C265.149994,176.584808 264.959076,177.234756 264.587616,178.394547 
	C264.358490,179.252823 264.309875,179.601257 264.261230,179.949692 
	C264.076416,180.364655 263.891602,180.779602 263.455627,181.788651 
	C262.725006,183.860748 262.245575,185.338760 261.766113,186.816772 
	C261.766113,186.816772 261.778687,186.929886 261.525085,187.081818 
	C259.675415,189.943893 258.079315,192.654022 256.369537,194.996460 
	C256.450989,194.010666 256.547913,193.338226 256.855499,192.782394 
	C266.870178,174.685532 267.779358,155.893845 261.003204,136.590500 
	C259.440155,132.137787 257.357239,127.867584 255.786652,123.707878 
	C258.613464,128.789536 261.167145,133.676697 263.720856,138.563873 
z"/>
<path fill="#F7F7F8" opacity="1.000000" stroke="none" 
	d="
M256.483215,195.364151 
	C258.079315,192.654022 259.675415,189.943893 261.546082,187.028931 
	C260.748505,190.356766 259.687408,193.892838 258.601776,197.421371 
	C256.566650,204.035828 250.499725,207.219376 245.970566,211.542053 
	C241.437454,215.868454 235.754532,219.001816 230.477570,222.510666 
	C230.128830,222.742584 228.947205,221.721909 228.267044,220.723495 
	C231.042480,218.595169 233.703827,217.027206 236.360199,215.444412 
	C236.355240,215.429581 236.380676,215.419052 236.714569,215.343384 
	C239.835144,213.025177 242.621796,210.782639 245.420227,208.491516 
	C245.431992,208.442963 245.529648,208.421738 245.788589,208.328339 
	C246.512680,207.687042 246.977844,207.139145 247.452820,206.538635 
	C247.462631,206.486038 247.568558,206.470764 247.838318,206.369797 
	C248.553131,205.663620 248.998184,205.058395 249.375793,204.384613 
	C249.308350,204.316040 249.486710,204.388123 249.708099,204.298157 
	C250.206100,204.005859 250.355728,203.733704 250.328522,203.266541 
	C250.278656,203.141373 250.430710,203.363861 250.715576,203.236832 
	C251.702148,202.096115 252.403839,201.082413 253.057373,200.043732 
	C253.009201,200.018753 253.079758,200.101212 253.347092,199.977097 
	C253.872833,199.335999 254.131226,198.819031 254.185486,198.218842 
	C253.981323,198.135605 254.382904,198.321091 254.654633,198.174133 
	C255.431351,197.148071 255.936371,196.268982 256.447815,195.377838 
	C256.454224,195.365799 256.483215,195.364151 256.483215,195.364151 
z"/>
<path fill="#BF4841" opacity="1.000000" stroke="none" 
	d="
M236.365173,215.459229 
	C233.703827,217.027206 231.042480,218.595169 228.144226,220.388794 
	C227.361176,220.790558 226.815033,220.966660 225.717163,221.371841 
	C224.404358,221.951706 223.643280,222.302490 222.882187,222.653259 
	C222.442322,222.730988 222.002457,222.808716 220.969360,223.025787 
	C220.063126,223.382263 219.750137,223.599426 219.437149,223.816574 
	C219.437149,223.816574 219.186127,223.708878 218.699570,223.792770 
	C215.759506,224.425705 213.305984,224.974747 210.852463,225.523773 
	C210.416977,225.531021 209.981476,225.538269 208.851440,225.661331 
	C206.770035,225.908386 205.383148,226.039627 203.996277,226.170853 
	C202.929108,226.133682 201.861954,226.096512 199.972717,226.036011 
	C197.106842,225.955292 195.063049,225.897903 193.019257,225.840515 
	C193.019257,225.840500 192.791153,225.672760 192.414032,225.530792 
	C191.382217,225.361252 190.727539,225.333710 190.072845,225.306168 
	C189.306076,225.132095 188.539307,224.958038 187.100128,224.583252 
	C184.618500,223.967926 182.809265,223.553299 181.000031,223.138672 
	C180.601013,222.936890 180.201996,222.735092 179.470123,222.481567 
	C175.838333,220.863647 172.539398,219.297455 169.130432,217.354843 
	C169.020370,216.978439 169.215302,216.768570 169.572052,216.839676 
	C170.415894,217.019180 170.946396,217.037659 171.383835,217.248856 
	C191.776047,227.094543 212.024216,226.988632 232.178162,216.499573 
	C233.418381,215.854111 234.962463,215.792496 236.365173,215.459229 
z"/>
<path fill="#F7F7F8" opacity="1.000000" stroke="none" 
	d="
M88.803741,85.939774 
	C88.376472,86.248932 87.949196,86.558090 87.264153,86.938858 
	C88.274513,84.431114 89.243927,81.642670 90.872650,79.315697 
	C94.314026,74.399002 99.641182,71.765617 104.800316,69.147652 
	C107.091675,67.984909 109.885414,67.812218 112.714111,67.510277 
	C112.593155,68.170616 112.209213,68.510818 111.825272,68.851028 
	C111.825272,68.851028 111.945663,68.948845 111.565872,68.939484 
	C109.112946,70.282021 107.039803,71.633911 104.966667,72.985809 
	C104.966667,72.985809 104.998474,73.004974 104.728661,73.025642 
	C104.219421,73.296036 103.979996,73.545761 103.740570,73.795494 
	C103.740570,73.795494 103.852951,73.830902 103.583572,73.823875 
	C103.080299,74.053123 102.846397,74.289398 102.612503,74.525665 
	C102.612503,74.525673 102.534729,74.814957 102.281975,74.754211 
	C101.628677,75.082298 101.228142,75.471115 100.827599,75.859940 
	C100.827599,75.859940 100.950653,75.937836 100.594933,75.951836 
	C99.100868,76.929054 97.962532,77.892273 96.824188,78.855492 
	C96.824188,78.855492 96.949966,78.934822 96.623680,78.950958 
	C95.747185,79.507469 95.196968,80.047836 94.646759,80.588211 
	C94.646759,80.588211 95.019836,80.722069 94.597458,80.738068 
	C93.879456,80.922844 93.680687,81.169601 93.578773,81.494354 
	C93.578773,81.494354 93.546974,81.580376 93.225998,81.698708 
	C91.898186,82.851601 90.891357,83.886162 89.884529,84.920731 
	C89.884529,84.920731 89.964340,84.960228 89.689087,84.999802 
	C89.210472,85.339508 89.007111,85.639641 88.803741,85.939774 
z"/>
<path fill="#F7F7F8" opacity="1.000000" stroke="none" 
	d="
M81.975914,230.065628 
	C82.405075,230.657410 82.834236,231.249191 83.613205,232.225616 
	C84.271065,232.815628 84.579094,233.021011 84.887131,233.226379 
	C84.887131,233.226379 84.909370,233.089218 84.937378,233.373642 
	C85.276787,233.878296 85.588181,234.098541 85.899574,234.318771 
	C85.889229,234.611801 86.006226,234.839386 86.557610,235.329453 
	C87.189491,235.869370 87.514320,236.081345 87.839157,236.293320 
	C87.839157,236.293320 87.855247,236.135544 87.869888,236.423828 
	C88.189751,236.910904 88.494972,237.109680 88.800186,237.308456 
	C88.800186,237.308456 88.846901,237.158508 88.872017,237.448914 
	C89.227936,237.942871 89.558739,238.146393 89.889542,238.349915 
	C89.889084,238.644409 90.014969,238.867691 90.590218,239.330948 
	C91.247040,239.841827 91.580833,240.041519 91.914635,240.241211 
	C91.944038,240.576736 92.111374,240.815674 92.756744,241.263794 
	C93.556610,241.891754 94.016357,242.213959 94.476112,242.536148 
	C94.476112,242.536148 94.567932,242.374969 94.677551,242.680374 
	C95.006798,243.252762 95.288895,243.400635 95.633469,243.429398 
	C95.633469,243.429398 95.546928,243.180466 95.721558,243.573288 
	C96.565163,244.403152 97.234138,244.840210 97.903122,245.277267 
	C98.238403,245.666489 98.573685,246.055710 99.003662,246.688293 
	C96.707993,245.774338 94.244736,244.743896 91.947685,243.424179 
	C89.635597,242.095856 87.488770,240.479858 85.681664,238.768219 
	C84.177223,236.910843 82.942871,233.841171 81.115334,233.434006 
	C76.496704,232.405029 77.349815,229.738510 78.220337,226.412125 
	C78.455399,226.071625 78.889915,226.159637 78.889915,226.159637 
	C78.889915,226.159637 78.951515,226.065018 78.967316,226.373474 
	C79.523003,227.240463 80.062881,227.798981 80.602768,228.357483 
	C80.602768,228.357483 80.935555,228.134186 80.841667,228.507767 
	C81.157158,229.276108 81.566536,229.670868 81.975914,230.065628 
z"/>
<path fill="#F7F7F8" opacity="1.000000" stroke="none" 
	d="
M231.946198,241.972412 
	C232.233154,241.818588 232.520111,241.664764 233.211121,241.189484 
	C234.460129,239.950760 235.305115,239.033493 236.150085,238.116226 
	C236.150085,238.116226 236.058228,238.062561 236.334717,238.031342 
	C236.798859,237.699615 236.986511,237.399094 237.174164,237.098557 
	C237.174149,237.098557 237.080505,237.080750 237.348969,237.040939 
	C237.801376,236.698471 237.985336,236.395813 238.169312,236.093140 
	C238.169312,236.093155 238.066086,236.061935 238.371918,236.007080 
	C239.153732,235.342026 239.629700,234.731842 240.105652,234.121643 
	C240.105652,234.121643 240.023727,233.995499 240.309479,233.978363 
	C240.756744,233.651489 240.918228,233.341766 241.079742,233.032043 
	C241.079742,233.032043 241.008270,233.009827 241.291946,232.946228 
	C242.033554,232.571808 242.491486,232.261002 242.949402,231.950195 
	C242.643433,235.247162 242.361450,238.294113 238.289383,239.616943 
	C236.477341,240.205597 234.412399,242.191605 233.843994,243.982025 
	C232.641205,247.770630 230.226242,247.786804 227.187363,246.783890 
	C227.462646,245.875961 227.786179,245.479675 228.109711,245.083405 
	C228.109711,245.083405 228.029907,245.021423 228.308655,245.007446 
	C228.803055,244.719223 229.018692,244.444946 229.234329,244.170670 
	C229.234329,244.170670 229.103714,244.111450 229.439331,244.085480 
	C230.498688,243.363831 231.222443,242.668121 231.946198,241.972412 
z"/>
<path fill="#F7F7F8" opacity="1.000000" stroke="none" 
	d="
M65.693314,119.289597 
	C64.662392,121.845886 63.633728,124.268066 62.344196,126.940231 
	C61.261436,123.240929 61.064377,119.649086 64.357681,116.299812 
	C65.647255,114.988327 65.332832,112.099648 65.814163,109.588966 
	C67.099968,108.953773 68.826378,108.100906 70.873924,107.580833 
	C71.120743,108.273277 71.046425,108.632935 70.972107,108.992584 
	C70.972107,108.992584 71.006073,108.995285 70.746132,109.162300 
	C70.145256,110.067680 69.804321,110.806053 69.463394,111.544426 
	C69.463394,111.544426 69.624153,111.546089 69.347450,111.742508 
	C68.968063,112.268021 68.865379,112.597107 68.762695,112.926193 
	C68.480934,113.402443 68.199173,113.878693 67.620125,114.840210 
	C66.854317,116.551781 66.385788,117.778099 65.917267,119.004417 
	C65.917267,119.004417 65.695572,119.155479 65.693314,119.289597 
z"/>
<path fill="#F7F7F8" opacity="1.000000" stroke="none" 
	d="
M263.877289,138.203369 
	C261.167145,133.676697 258.613464,128.789536 255.775238,123.714600 
	C255.490707,123.526848 255.484909,123.503181 255.412811,123.197998 
	C254.545044,121.933861 253.749374,120.974907 252.894531,119.789879 
	C252.694595,119.260040 252.462189,119.066185 252.069336,118.677673 
	C251.806702,118.005852 251.612839,117.638580 251.418961,117.271317 
	C252.540878,117.372307 254.288422,117.052414 254.684753,117.641541 
	C257.599365,121.974037 260.475647,126.368774 262.863953,131.001709 
	C263.874542,132.962128 263.680328,135.543655 263.877289,138.203369 
z"/>
<path fill="#F7F7F8" opacity="1.000000" stroke="none" 
	d="
M227.781006,230.892548 
	C223.790482,231.923599 219.799973,232.954651 215.410126,233.933289 
	C219.516556,231.919708 224.059402,230.038269 228.514786,227.968613 
	C231.376022,226.639465 234.079941,224.973328 236.928207,223.612823 
	C237.377838,223.398071 238.219101,224.003189 238.709229,224.830017 
	C234.953110,227.251373 231.367065,229.071976 227.781006,230.892548 
z"/>
<path fill="#F7F7F8" opacity="1.000000" stroke="none" 
	d="
M86.632111,87.005615 
	C87.010796,87.006104 86.997589,87.411880 86.712013,87.713150 
	C86.236198,88.320778 86.045959,88.627144 85.855721,88.933502 
	C85.855721,88.933502 85.943817,88.944244 85.678268,88.988983 
	C85.237633,89.339821 85.062538,89.645912 84.887451,89.952011 
	C84.887451,89.952011 84.971771,89.972038 84.693878,90.035828 
	C84.107986,90.552002 83.799995,91.004395 83.492004,91.456779 
	C83.492004,91.456779 83.490021,91.562660 83.179764,91.736191 
	C81.564552,93.599266 80.259598,95.288803 78.954651,96.978348 
	C78.954651,96.978348 79.003052,96.996597 78.714783,97.124260 
	C77.899406,98.134613 77.372299,99.017311 76.845192,99.900002 
	C76.845192,99.900002 76.952477,99.951691 76.671799,100.014221 
	C76.014877,100.460663 75.638634,100.844559 75.177071,101.152298 
	C75.091751,101.076134 74.922485,100.922295 74.922485,100.922295 
	C75.156265,92.772232 77.917915,89.380241 86.632111,87.005615 
z"/>
<path fill="#F7F7F8" opacity="1.000000" stroke="none" 
	d="
M246.148895,220.122559 
	C246.704697,215.953033 250.760666,211.412079 254.422318,211.189240 
	C255.228622,211.140167 256.100647,212.171524 256.942413,212.705353 
	C256.013702,214.132675 255.084976,215.559982 253.626312,216.670776 
	C250.780563,217.610382 248.464737,218.866470 246.148895,220.122559 
z"/>
<path fill="#F7F7F8" opacity="1.000000" stroke="none" 
	d="
M113.106560,256.218750 
	C119.399742,258.340027 125.709518,260.816376 132.303711,263.558929 
	C124.585732,265.472229 118.774704,261.237030 113.106560,256.218750 
z"/>
<path fill="#F7F7F8" opacity="1.000000" stroke="none" 
	d="
M210.580582,256.234253 
	C210.580582,256.234253 210.853058,256.250732 211.223480,256.128479 
	C211.970306,255.931351 212.346710,255.856445 212.723114,255.781555 
	C211.458679,257.314880 210.475006,259.693207 208.877472,260.224091 
	C203.967468,261.855621 198.822433,262.779785 193.322723,263.940430 
	C198.106644,261.788666 203.336578,259.675354 209.092438,257.251923 
	C209.939117,256.705963 210.259857,256.470123 210.580582,256.234253 
z"/>
<path fill="#F7F7F8" opacity="1.000000" stroke="none" 
	d="
M60.120228,190.793488 
	C61.206295,192.862213 62.117714,195.324677 63.215073,198.077255 
	C63.401009,198.367371 63.433945,198.370285 63.487991,198.700653 
	C63.925083,199.772446 64.308128,200.513885 64.691170,201.255325 
	C64.691170,201.255325 64.760345,201.110977 64.722801,201.486237 
	C65.080795,202.623718 65.476334,203.385941 65.871872,204.148163 
	C65.871872,204.148163 65.927185,204.062424 65.891235,204.390762 
	C66.033981,205.332794 66.212685,205.946487 66.391388,206.560181 
	C65.758598,206.558228 64.929718,206.816681 64.525002,206.511887 
	C61.991623,204.604019 58.974342,194.260269 60.120228,190.793488 
z"/>
<path fill="#F7F7F8" opacity="1.000000" stroke="none" 
	d="
M179.130554,267.243439 
	C183.354553,265.904633 187.731140,264.876984 192.512451,263.856750 
	C190.208725,268.317108 184.672318,269.815674 179.130554,267.243439 
z"/>
<path fill="#F7F7F8" opacity="1.000000" stroke="none" 
	d="
M99.047714,247.287140 
	C103.020370,249.368500 106.978607,251.833725 111.142868,254.580902 
	C106.540634,253.669495 100.450630,254.671082 99.047714,247.287140 
z"/>
<path fill="#F7F7F8" opacity="1.000000" stroke="none" 
	d="
M132.968353,59.125183 
	C129.319199,60.879673 125.483688,62.297268 121.291290,63.738243 
	C122.856834,59.386494 128.115402,57.179070 132.968353,59.125183 
z"/>
<path fill="#F7F7F8" opacity="1.000000" stroke="none" 
	d="
M210.435699,66.336945 
	C213.802383,67.538567 219.885864,63.186913 219.776611,71.393433 
	C219.266174,71.617188 218.970032,71.520950 218.656540,71.478096 
	C218.656540,71.478096 218.504700,71.383614 218.294617,71.161285 
	C217.836731,70.747337 217.556976,70.666870 217.245224,70.697556 
	C217.245224,70.697556 217.026016,70.916664 217.018890,70.587204 
	C216.678833,70.159981 216.345901,70.062218 216.012985,69.964462 
	C216.012985,69.964462 216.008179,70.005524 215.846161,69.742310 
	C214.953003,69.147903 214.221863,68.816696 213.490738,68.485497 
	C213.490738,68.485497 213.381775,68.476616 213.147232,68.219643 
	C212.087021,67.420761 211.261368,66.878853 210.435699,66.336945 
z"/>
<path fill="#F7F7F8" opacity="1.000000" stroke="none" 
	d="
M138.000183,265.520630 
	C140.782578,265.621185 143.573608,266.090698 146.688354,266.750793 
	C144.394943,269.888763 139.679474,269.337891 138.000183,265.520630 
z"/>
<path fill="#BF4841" opacity="1.000000" stroke="none" 
	d="
M251.183365,117.091400 
	C251.612839,117.638580 251.806702,118.005852 251.711670,118.667313 
	C248.195740,115.728401 244.968689,112.495300 241.836670,109.164108 
	C241.931702,109.066025 242.120544,108.868675 242.120544,108.868675 
	C242.474106,109.026070 242.827652,109.183472 243.449600,109.459038 
	C243.801086,109.808578 243.949539,109.984955 244.501572,110.437279 
	C245.855423,111.598900 246.871002,112.429581 247.886597,113.260262 
	C248.906998,114.477333 249.927383,115.694405 251.183365,117.091400 
z"/>
<path fill="#305584" opacity="1.000000" stroke="none" 
	d="
M78.896011,225.783752 
	C78.889915,226.159637 78.455399,226.071625 78.236786,226.035843 
	C78.018166,226.000061 78.002007,225.994537 77.969421,225.721558 
	C77.661217,225.244354 77.385597,225.040100 77.109985,224.835846 
	C77.109985,224.835846 77.078201,224.929291 77.066811,224.649445 
	C76.792038,224.141632 76.528656,223.913696 76.265274,223.685745 
	C76.265274,223.685745 76.277748,223.882202 76.206360,223.471176 
	C75.182938,221.807983 74.230904,220.555832 73.278870,219.303680 
	C73.140358,218.908813 73.001854,218.513931 72.578445,217.654205 
	C71.821350,216.163727 71.349152,215.138092 70.876953,214.112457 
	C73.552002,217.877594 76.227051,221.642715 78.896011,225.783752 
z"/>
<path fill="#F7F7F8" opacity="1.000000" stroke="none" 
	d="
M165.069031,268.429993 
	C168.700211,267.736115 172.405716,267.395508 176.547546,267.107025 
	C173.524368,271.253387 169.259796,269.478363 165.069031,268.429993 
z"/>
<path fill="#305787" opacity="1.000000" stroke="none" 
	d="
M228.199615,230.934860 
	C231.367065,229.071976 234.953110,227.251373 238.769806,225.160278 
	C239.354706,224.803192 239.709000,224.716599 240.336411,224.589005 
	C237.901642,229.095627 233.518723,230.519073 228.199615,230.934860 
z"/>
<path fill="#305787" opacity="1.000000" stroke="none" 
	d="
M246.129089,220.098633 
	C248.464737,218.866470 250.780563,217.610382 253.258942,216.679688 
	C253.233383,217.410950 253.045273,217.816788 252.502167,218.725525 
	C251.136414,220.520401 250.125671,221.812378 249.114929,223.104370 
	C248.299957,222.412094 247.484970,221.719833 246.371124,220.787842 
	C246.072250,220.548111 246.165878,220.091980 246.165878,220.091980 
	C246.165878,220.091980 246.109253,220.074692 246.129089,220.098633 
z"/>
<path fill="#F7F7F8" opacity="1.000000" stroke="none" 
	d="
M157.083817,55.078949 
	C153.316208,55.725033 149.070816,56.335991 144.410492,56.915295 
	C144.597504,53.161018 147.409851,53.984108 149.791504,54.162495 
	C152.072220,54.333321 154.335220,54.740517 157.083817,55.078949 
z"/>
<path fill="#F7F7F8" opacity="1.000000" stroke="none" 
	d="
M70.892601,214.098206 
	C71.349152,215.138092 71.821350,216.163727 72.425766,217.506577 
	C67.568153,217.894196 66.539467,216.390137 68.374969,211.011505 
	C68.826294,211.022018 69.041260,211.247818 69.312286,211.420227 
	C69.312286,211.420227 69.412254,211.485138 69.478157,211.834991 
	C69.997772,212.830093 70.451485,213.475342 70.905197,214.120575 
	C70.905197,214.120575 70.908249,214.083954 70.892601,214.098206 
z"/>
<path fill="#305584" opacity="1.000000" stroke="none" 
	d="
M112.235428,68.901245 
	C112.209213,68.510818 112.593155,68.170616 113.147186,67.628830 
	C113.317276,67.427238 113.315384,67.392250 113.647400,67.324951 
	C115.319328,66.508995 116.659225,65.760338 117.999130,65.011681 
	C118.632011,64.859123 119.264885,64.706573 120.221710,64.510162 
	C118.924217,67.743736 116.360435,69.361336 112.235428,68.901245 
z"/>
<path fill="#F7F7F8" opacity="1.000000" stroke="none" 
	d="
M211.058136,225.879700 
	C213.305984,224.974747 215.759506,224.425705 218.601303,223.887634 
	C217.397766,227.928650 214.411133,227.347687 211.058136,225.879700 
z"/>
<path fill="#305787" opacity="1.000000" stroke="none" 
	d="
M212.734207,255.793518 
	C212.346710,255.856445 211.970306,255.931351 211.305130,256.019104 
	C213.954834,254.137741 216.893311,252.243530 220.016418,250.686768 
	C219.980072,251.292221 219.759048,251.560211 219.538025,251.828217 
	C219.538025,251.828217 219.190948,251.872345 218.827560,252.027344 
	C218.238266,252.426086 218.012344,252.669815 217.786438,252.913544 
	C216.666046,253.492447 215.545654,254.071335 213.947510,254.884155 
	C213.238586,255.349548 213.007431,255.581024 212.776260,255.812485 
	C212.776260,255.812485 212.745300,255.805481 212.734207,255.793518 
z"/>
<path fill="#F7F7F8" opacity="1.000000" stroke="none" 
	d="
M249.101837,223.084259 
	C250.125671,221.812378 251.136414,220.520401 252.394836,219.043427 
	C256.603760,223.215210 250.751297,222.901749 249.328491,224.905273 
	C248.891602,224.906326 248.709290,224.741791 248.777969,224.464142 
	C248.939819,223.819382 249.032974,223.452255 249.126129,223.085129 
	C249.126129,223.085129 249.088760,223.064163 249.101837,223.084259 
z"/>
<path fill="#F7F7F8" opacity="1.000000" stroke="none" 
	d="
M181.008698,223.505798 
	C182.809265,223.553299 184.618500,223.967926 186.705887,224.591309 
	C184.918503,227.525299 183.546906,227.312180 181.008698,223.505798 
z"/>
<path fill="#305787" opacity="1.000000" stroke="none" 
	d="
M242.961121,231.967239 
	C242.491486,232.261002 242.033554,232.571808 241.310791,232.978546 
	C242.524826,231.081757 244.003708,229.089035 245.756592,227.408722 
	C245.720032,228.279434 245.409500,228.837708 245.098969,229.395996 
	C244.785965,229.686752 244.472946,229.977493 243.828217,230.605057 
	C243.311325,231.282715 243.126144,231.623535 242.940964,231.964355 
	C242.940964,231.964355 242.972855,231.984283 242.961121,231.967239 
z"/>
<path fill="#F7F7F8" opacity="1.000000" stroke="none" 
	d="
M153.107178,267.953674 
	C155.065964,267.721741 157.156158,267.786133 159.625946,267.957031 
	C157.859589,272.105804 155.509109,268.727722 153.107178,267.953674 
z"/>
<path fill="#F7F7F8" opacity="1.000000" stroke="none" 
	d="
M219.977264,251.876129 
	C219.759048,251.560211 219.980072,251.292221 220.372650,250.821716 
	C220.544220,250.619232 220.583191,250.589279 220.861526,250.480072 
	C221.474884,249.950836 221.809921,249.530792 222.144958,249.110748 
	C222.144958,249.110748 222.051849,249.063095 222.325623,249.017746 
	C222.795776,248.677399 222.992172,248.382385 223.188553,248.087372 
	C223.188553,248.087372 223.614868,248.035553 224.059174,248.076492 
	C224.677612,248.131195 224.851715,248.144958 225.025833,248.158707 
	C225.503021,251.878799 223.316147,252.337662 219.977264,251.876129 
z"/>
<path fill="#F7F7F8" opacity="1.000000" stroke="none" 
	d="
M193.076111,226.227890 
	C195.063049,225.897903 197.106842,225.955292 199.578354,226.112427 
	C197.876801,229.104675 195.547714,228.590317 193.076111,226.227890 
z"/>
<path fill="#305584" opacity="1.000000" stroke="none" 
	d="
M69.489990,211.074615 
	C69.041260,211.247818 68.826294,211.022018 68.461731,210.626862 
	C68.256081,210.510895 68.233170,210.188522 68.085190,209.796539 
	C67.675964,209.122696 67.414726,208.840851 67.153488,208.558990 
	C67.153496,208.558990 67.191330,208.230164 67.091537,207.847809 
	C66.776588,207.203445 66.561440,206.941422 66.346283,206.679413 
	C66.346283,206.679413 66.382896,206.625488 66.387146,206.592834 
	C66.212685,205.946487 66.033981,205.332794 65.840874,204.398956 
	C67.106880,206.295547 68.387291,208.512283 69.489990,211.074615 
z"/>
<path fill="#F7F7F8" opacity="1.000000" stroke="none" 
	d="
M176.946793,55.682346 
	C174.531998,55.906216 172.066238,55.792854 169.251373,55.491032 
	C171.566788,55.316750 174.231323,55.330933 176.946793,55.682346 
z"/>
<path fill="#F7F7F8" opacity="1.000000" stroke="none" 
	d="
M262.149353,186.841919 
	C262.245575,185.338760 262.725006,183.860748 263.417725,182.128693 
	C265.861481,184.110092 265.440643,185.762207 262.149353,186.841919 
z"/>
<path fill="#3D608A" opacity="1.000000" stroke="none" 
	d="
M244.238129,93.089676 
	C245.418167,95.504753 246.258591,97.679642 242.051392,96.428635 
	C242.008209,94.805214 242.132797,93.541016 242.365021,91.947723 
	C242.992264,92.056763 243.511887,92.494911 244.238129,93.089676 
z"/>
<path fill="#F7F7F8" opacity="1.000000" stroke="none" 
	d="
M117.955048,64.687973 
	C116.659225,65.760338 115.319328,66.508995 113.657608,67.311523 
	C113.626671,64.483536 114.774963,62.908794 117.955048,64.687973 
z"/>
<path fill="#F7F7F8" opacity="1.000000" stroke="none" 
	d="
M245.507690,229.551483 
	C245.409500,228.837708 245.720032,228.279434 246.121826,227.410095 
	C246.548645,227.022827 246.783417,226.826233 247.219986,226.176025 
	C247.918167,225.475769 248.313721,225.108780 248.709290,224.741791 
	C248.709290,224.741791 248.891602,224.906326 248.982986,224.989777 
	C248.808350,227.153915 249.491531,229.881500 245.507690,229.551483 
z"/>
<path fill="#F7F7F8" opacity="1.000000" stroke="none" 
	d="
M204.078629,226.520020 
	C205.383148,226.039627 206.770035,225.908386 208.572174,225.837921 
	C207.961639,229.121536 206.144730,228.410217 204.078629,226.520020 
z"/>
<path fill="#F7F7F8" opacity="1.000000" stroke="none" 
	d="
M73.201485,219.755524 
	C74.230904,220.555832 75.182938,221.807983 76.232132,223.376190 
	C73.151543,224.470673 72.837822,222.614944 73.201485,219.755524 
z"/>
<path fill="#F7F7F8" opacity="1.000000" stroke="none" 
	d="
M265.870636,144.963104 
	C265.195251,144.068649 264.867828,142.979019 264.513306,141.543808 
	C267.532471,141.190018 267.327667,142.759537 265.870636,144.963104 
z"/>
<path fill="#F7F7F8" opacity="1.000000" stroke="none" 
	d="
M263.438538,122.452637 
	C262.606354,122.418144 262.007324,122.153580 261.408325,121.889008 
	C261.905121,121.398048 262.401947,120.907082 262.898743,120.416122 
	C263.156403,121.018265 263.414093,121.620415 263.438538,122.452637 
z"/>
<path fill="#F7F7F8" opacity="1.000000" stroke="none" 
	d="
M267.302856,152.952057 
	C266.717834,151.884064 266.448700,150.779999 266.226532,149.335709 
	C266.721924,150.302307 267.170319,151.609146 267.302856,152.952057 
z"/>
<path fill="#F7F7F8" opacity="1.000000" stroke="none" 
	d="
M186.731689,233.582520 
	C184.989944,233.468307 182.997070,233.079849 180.714935,232.429077 
	C182.443954,232.547272 184.462250,232.927780 186.731689,233.582520 
z"/>
<path fill="#F7F7F8" opacity="1.000000" stroke="none" 
	d="
M147.401474,270.477539 
	C147.962433,271.029968 148.227554,271.716309 148.492676,272.402679 
	C147.921692,272.467773 147.350739,272.532867 146.779770,272.597961 
	C146.888382,271.935822 146.997009,271.273651 147.401474,270.477539 
z"/>
<path fill="#F7F7F8" opacity="1.000000" stroke="none" 
	d="
M141.854950,56.879250 
	C140.944199,57.493813 139.827057,57.816456 138.355988,58.085014 
	C139.217575,57.549728 140.433075,57.068527 141.854950,56.879250 
z"/>
<path fill="#F7F7F8" opacity="1.000000" stroke="none" 
	d="
M223.664230,74.167435 
	C225.110001,74.820213 226.555756,75.472984 227.964676,76.598862 
	C227.927826,77.071960 227.773483,77.228821 227.490753,77.117905 
	C226.504700,76.634529 225.801376,76.262062 225.098053,75.889603 
	C225.098053,75.889603 224.998779,75.997223 224.926270,75.688110 
	C224.457260,74.975136 224.060745,74.571281 223.664230,74.167435 
z"/>
<path fill="#F7F7F8" opacity="1.000000" stroke="none" 
	d="
M228.004456,76.992996 
	C229.338745,77.839256 230.596436,78.764481 231.542648,79.960861 
	C230.870117,80.091415 230.509064,79.950798 230.147995,79.810181 
	C230.147995,79.810181 230.067596,79.921829 230.030548,79.641693 
	C229.676758,79.211670 229.360031,79.061775 229.043304,78.911880 
	C229.043304,78.911880 229.015747,78.991951 228.935364,78.717026 
	C228.494476,78.037674 228.133987,77.633247 227.773483,77.228821 
	C227.773483,77.228821 227.927826,77.071960 228.004456,76.992996 
z"/>
<path fill="#F7F7F8" opacity="1.000000" stroke="none" 
	d="
M184.746216,57.003647 
	C183.117569,57.164452 181.545670,56.951855 179.666412,56.471321 
	C181.173706,56.345669 182.988312,56.487957 184.746216,57.003647 
z"/>
<path fill="#F7F7F8" opacity="1.000000" stroke="none" 
	d="
M211.970612,234.084412 
	C210.667465,234.618134 209.208008,234.854294 207.380096,235.003113 
	C208.612549,234.539459 210.213425,234.163147 211.970612,234.084412 
z"/>
<path fill="#F7F7F8" opacity="1.000000" stroke="none" 
	d="
M247.911865,112.843903 
	C246.871002,112.429581 245.855423,111.598900 244.671921,110.480240 
	C245.648392,110.937370 246.792755,111.682465 247.911865,112.843903 
z"/>
<path fill="#F7F7F8" opacity="1.000000" stroke="none" 
	d="
M202.916626,62.569664 
	C201.667679,62.526180 200.335815,62.103580 198.754211,61.422401 
	C199.947540,61.506065 201.390625,61.848305 202.916626,62.569664 
z"/>
<path fill="#3D608A" opacity="1.000000" stroke="none" 
	d="
M210.191833,66.281723 
	C211.261368,66.878853 212.087021,67.420761 213.110931,68.178764 
	C211.971954,67.832153 210.634750,67.269447 209.134460,66.408684 
	C209.296921,66.149254 209.622452,66.187881 210.191833,66.281723 
z"/>
<path fill="#3D608A" opacity="1.000000" stroke="none" 
	d="
M223.467453,74.120552 
	C224.060745,74.571281 224.457260,74.975136 224.978210,75.636971 
	C223.856247,75.453285 222.609833,75.011612 221.362579,74.102692 
	C221.361725,73.635437 221.673096,73.321999 221.894730,73.409348 
	C222.376312,73.710373 222.673660,73.800018 223.008377,73.765640 
	C223.008377,73.765640 223.270676,74.073669 223.467453,74.120552 
z"/>
<path fill="#F7F7F8" opacity="1.000000" stroke="none" 
	d="
M223.073883,222.973938 
	C223.643280,222.302490 224.404358,221.951706 225.477570,221.531525 
	C224.948349,222.072968 224.106964,222.683792 223.073883,222.973938 
z"/>
<path fill="#3D608A" opacity="1.000000" stroke="none" 
	d="
M218.560074,71.811737 
	C218.970032,71.520950 219.266174,71.617188 219.779480,71.777412 
	C220.013962,71.788025 220.273666,72.072525 220.590210,72.336761 
	C221.162201,72.841331 221.417648,73.081665 221.673096,73.321991 
	C221.673096,73.321999 221.361725,73.635437 221.206421,73.791435 
	C220.188614,73.346756 219.326111,72.746071 218.560074,71.811737 
z"/>
<path fill="#305584" opacity="1.000000" stroke="none" 
	d="
M71.331436,108.940559 
	C71.046425,108.632935 71.120743,108.273277 71.238541,107.639587 
	C71.282028,107.365547 71.253433,107.336029 71.490257,107.188477 
	C71.840141,106.701378 71.953201,106.361839 72.066254,106.022293 
	C72.066254,106.022293 72.464279,105.909279 72.666107,105.864182 
	C72.475548,106.842239 72.083153,107.865387 71.331436,108.940559 
z"/>
<path fill="#F7F7F8" opacity="1.000000" stroke="none" 
	d="
M73.157043,104.315125 
	C73.511124,103.251663 73.865204,102.188202 74.570877,101.023514 
	C74.922485,100.922295 75.091751,101.076134 75.101730,101.432640 
	C75.004532,102.157753 74.897369,102.526352 74.790199,102.894958 
	C74.790199,102.894958 74.890083,102.906265 74.613960,102.997971 
	C73.944244,103.498154 73.550652,103.906639 73.157043,104.315125 
z"/>
<path fill="#3D608A" opacity="1.000000" stroke="none" 
	d="
M240.003174,88.771156 
	C239.037094,88.200653 238.049301,87.410080 237.272522,86.316055 
	C237.483521,86.012589 237.953583,86.082176 237.953583,86.082176 
	C237.953583,86.082176 237.994446,86.012077 238.039368,86.278687 
	C238.374390,86.720360 238.664490,86.895432 238.954605,87.070496 
	C238.954605,87.070496 238.995651,87.004372 239.042847,87.276535 
	C239.377640,87.735710 239.665222,87.922729 239.952805,88.109741 
	C239.952805,88.109741 239.981461,88.551086 240.003174,88.771156 
z"/>
<path fill="#305787" opacity="1.000000" stroke="none" 
	d="
M227.763672,245.079895 
	C227.786179,245.479675 227.462646,245.875961 227.026886,246.508087 
	C226.546585,246.891647 226.178528,247.039352 225.519943,247.256912 
	C225.958847,246.576645 226.688248,245.826508 227.763672,245.079895 
z"/>
<path fill="#3D608A" opacity="1.000000" stroke="none" 
	d="
M234.305817,83.090958 
	C233.719803,82.987732 233.007004,82.650398 232.408356,81.941406 
	C233.074677,81.998787 233.626846,82.427818 234.305817,83.090958 
z"/>
<path fill="#3D608A" opacity="1.000000" stroke="none" 
	d="
M230.157501,80.178009 
	C230.509064,79.950798 230.870117,80.091415 231.503448,80.341263 
	C231.867447,80.720078 232.028687,80.938278 232.343994,81.292023 
	C231.674713,81.167908 230.920868,80.856880 230.157501,80.178009 
z"/>
<path fill="#305787" opacity="1.000000" stroke="none" 
	d="
M244.630890,221.710663 
	C244.120529,222.403381 243.341156,223.142761 242.249512,223.651611 
	C241.937225,223.421097 241.989578,223.011887 241.989578,223.011887 
	C241.989578,223.011887 242.004486,223.006180 242.288116,222.957016 
	C242.827957,222.647354 243.084167,222.386856 243.340363,222.126343 
	C243.680847,222.003326 244.021362,221.880325 244.630890,221.710663 
z"/>
<path fill="#F7F7F8" opacity="1.000000" stroke="none" 
	d="
M266.504089,171.949066 
	C266.209106,171.455261 266.217468,170.905762 266.355896,170.111832 
	C266.593109,170.542725 266.700256,171.218048 266.504089,171.949066 
z"/>
<path fill="#F7F7F8" opacity="1.000000" stroke="none" 
	d="
M194.691650,234.627197 
	C193.651138,234.838623 192.316803,234.778625 190.668701,234.455078 
	C191.702576,234.246277 193.050201,234.301025 194.691650,234.627197 
z"/>
<path fill="#305584" opacity="1.000000" stroke="none" 
	d="
M73.102707,104.586426 
	C73.550652,103.906639 73.944244,103.498154 74.591370,102.953064 
	C74.388649,103.783150 73.932388,104.749840 73.146339,105.820381 
	C72.893822,105.568726 72.971092,105.213219 73.102707,104.586426 
z"/>
<path fill="#F7F7F8" opacity="1.000000" stroke="none" 
	d="
M221.894730,73.409348 
	C221.417648,73.081665 221.162201,72.841331 220.779907,72.369995 
	C221.391129,72.465523 222.129196,72.792068 222.937805,73.442131 
	C222.673660,73.800018 222.376312,73.710373 221.894730,73.409348 
z"/>
<path fill="#305584" opacity="1.000000" stroke="none" 
	d="
M208.161697,65.854080 
	C207.254776,65.644455 206.347870,65.434830 205.383484,64.859451 
	C205.965805,64.663460 206.605591,64.833221 207.638214,65.231972 
	C208.031021,65.460968 208.161697,65.854080 208.161697,65.854080 
z"/>
<path fill="#3D608A" opacity="1.000000" stroke="none" 
	d="
M235.998169,84.721161 
	C235.553696,84.696388 235.020950,84.415894 234.560394,83.818253 
	C235.058365,83.822548 235.484131,84.143990 235.998169,84.721161 
z"/>
<path fill="#F7F7F8" opacity="1.000000" stroke="none" 
	d="
M190.326447,225.517487 
	C190.727539,225.333710 191.382217,225.361252 192.293991,225.605804 
	C191.894058,225.791473 191.237045,225.760147 190.326447,225.517487 
z"/>
<path fill="#F7F7F8" opacity="1.000000" stroke="none" 
	d="
M190.747391,58.664635 
	C190.310989,58.830128 189.638687,58.737892 188.712036,58.409515 
	C189.142288,58.251221 189.826889,58.329067 190.747391,58.664635 
z"/>
<path fill="#F7F7F8" opacity="1.000000" stroke="none" 
	d="
M186.774323,57.640244 
	C186.380554,57.838726 185.780396,57.802429 184.971558,57.545639 
	C185.364578,57.351921 185.966248,57.378693 186.774323,57.640244 
z"/>
<path fill="#3D608A" opacity="1.000000" stroke="none" 
	d="
M241.357437,90.164009 
	C241.002853,90.143440 240.533401,89.879097 240.036346,89.295418 
	C240.420013,89.290794 240.831299,89.605515 241.357437,90.164009 
z"/>
<path fill="#F7F7F8" opacity="1.000000" stroke="none" 
	d="
M149.152069,267.341400 
	C149.454163,267.127411 149.893341,267.113190 150.642685,267.218750 
	C150.398285,267.406067 149.843719,267.473602 149.152069,267.341400 
z"/>
<path fill="#F7F7F8" opacity="1.000000" stroke="none" 
	d="
M134.252975,264.374878 
	C134.675247,264.216461 135.335480,264.305481 136.253525,264.617340 
	C135.837875,264.767548 135.164398,264.694946 134.252975,264.374878 
z"/>
<path fill="#F7F7F8" opacity="1.000000" stroke="none" 
	d="
M213.027191,255.798752 
	C213.007431,255.581024 213.238586,255.349548 213.726807,255.112854 
	C213.748611,255.333405 213.513367,255.559219 213.027191,255.798752 
z"/>
<path fill="#F7F7F8" opacity="1.000000" stroke="none" 
	d="
M112.149872,255.376175 
	C112.325539,255.269836 112.631989,255.360031 113.040009,255.680481 
	C112.807220,255.918701 112.520248,255.806015 112.149872,255.376175 
z"/>
<path fill="#F7F7F8" opacity="1.000000" stroke="none" 
	d="
M218.032318,252.872177 
	C218.012344,252.669815 218.238266,252.426086 218.720688,252.165833 
	C218.836517,252.471191 218.603500,252.698349 218.032318,252.872177 
z"/>
<path fill="#F7F7F8" opacity="1.000000" stroke="none" 
	d="
M208.382355,65.828934 
	C208.161697,65.854080 208.031021,65.460968 207.969360,65.263702 
	C208.229721,65.063286 208.511353,65.168388 208.897491,65.560387 
	C209.042389,65.739044 208.602997,65.803795 208.382355,65.828934 
z"/>
<path fill="#F7F7F8" opacity="1.000000" stroke="none" 
	d="
M204.827606,63.644173 
	C204.643982,63.784000 204.263779,63.707680 203.697357,63.398247 
	C203.884445,63.252766 204.257721,63.340397 204.827606,63.644173 
z"/>
<path fill="#F7F7F8" opacity="1.000000" stroke="none" 
	d="
M196.770508,60.584259 
	C196.591690,60.738235 196.211029,60.685318 195.637344,60.407822 
	C195.819107,60.247948 196.193893,60.312656 196.770508,60.584259 
z"/>
<path fill="#305787" opacity="1.000000" stroke="none" 
	d="
M225.114822,247.940399 
	C224.851715,248.144958 224.677612,248.131195 224.263977,248.011902 
	C224.279068,247.683929 224.533707,247.461487 225.049927,247.251022 
	C225.311508,247.263016 225.203812,247.722076 225.114822,247.940399 
z"/>
<path fill="#F7F7F8" opacity="1.000000" stroke="none" 
	d="
M67.181702,208.851105 
	C67.414726,208.840851 67.675964,209.122696 67.955704,209.699829 
	C67.719437,209.711166 67.464676,209.427200 67.181702,208.851105 
z"/>
<path fill="#F7F7F8" opacity="1.000000" stroke="none" 
	d="
M265.519348,175.733810 
	C265.365265,175.575287 265.389587,175.215729 265.617340,174.664642 
	C265.779724,174.826355 265.738739,175.179550 265.519348,175.733810 
z"/>
<path fill="#F7F7F8" opacity="1.000000" stroke="none" 
	d="
M245.911865,220.152863 
	C246.165878,220.091980 246.072250,220.548111 246.002045,220.770325 
	C245.931824,220.992523 245.466232,221.020523 245.233368,221.008316 
	C245.219620,220.735321 245.438751,220.474533 245.911865,220.152863 
z"/>
<path fill="#F7F7F8" opacity="1.000000" stroke="none" 
	d="
M264.453674,179.768463 
	C264.309875,179.601257 264.358490,179.252823 264.618225,178.732819 
	C264.768311,178.903244 264.707214,179.245239 264.453674,179.768463 
z"/>
<path fill="#F7F7F8" opacity="1.000000" stroke="none" 
	d="
M237.845123,85.835602 
	C237.953583,86.082176 237.483521,86.012589 237.249573,85.970215 
	C237.015640,85.927834 236.901154,85.499863 236.862762,85.281708 
	C237.128464,85.238716 237.432556,85.413872 237.845123,85.835602 
z"/>
<path fill="#F7F7F8" opacity="1.000000" stroke="none" 
	d="
M243.061905,222.168121 
	C243.084167,222.386856 242.827957,222.647354 242.292831,222.950531 
	C242.270416,222.732117 242.526932,222.471008 243.061905,222.168121 
z"/>
<path fill="#F7F7F8" opacity="1.000000" stroke="none" 
	d="
M238.859833,86.831978 
	C238.664490,86.895432 238.374390,86.720360 238.002945,86.296570 
	C238.202774,86.229721 238.483917,86.411591 238.859833,86.831978 
z"/>
<path fill="#F7F7F8" opacity="1.000000" stroke="none" 
	d="
M66.312408,206.945724 
	C66.561440,206.941422 66.776588,207.203445 66.975601,207.729706 
	C66.732491,207.733322 66.505516,207.472687 66.312408,206.945724 
z"/>
<path fill="#F7F7F8" opacity="1.000000" stroke="none" 
	d="
M239.864349,87.864014 
	C239.665222,87.922729 239.377640,87.735710 239.009659,87.296844 
	C239.211472,87.236084 239.493698,87.427185 239.864349,87.864014 
z"/>
<path fill="#3D608A" opacity="1.000000" stroke="none" 
	d="
M242.326385,91.330765 
	C242.079834,91.403267 241.779083,91.273438 241.556900,90.877876 
	C241.920380,90.694595 242.132629,90.866692 242.326385,91.330765 
z"/>
<path fill="#F7F7F8" opacity="1.000000" stroke="none" 
	d="
M219.729034,223.819580 
	C219.750137,223.599426 220.063126,223.382263 220.669800,223.180725 
	C220.649307,223.405075 220.335098,223.613815 219.729034,223.819580 
z"/>
<path fill="#F7F7F8" opacity="1.000000" stroke="none" 
	d="
M241.779068,223.079742 
	C241.989578,223.011887 241.937225,223.421097 241.899231,223.623871 
	C241.861252,223.826630 241.912689,223.874237 241.669937,223.842407 
	C241.427185,223.810593 240.952972,223.770172 240.952972,223.770172 
	C241.096313,223.501465 241.301498,223.293930 241.779068,223.079742 
z"/>
<path fill="#F7F7F8" opacity="1.000000" stroke="none" 
	d="
M76.280548,223.969299 
	C76.528656,223.913696 76.792038,224.141632 77.113731,224.634125 
	C76.879967,224.683395 76.587891,224.468124 76.280548,223.969299 
z"/>
<path fill="#305787" opacity="1.000000" stroke="none" 
	d="
M240.839142,223.960876 
	C240.952972,223.770172 241.427185,223.810593 241.665253,223.807953 
	C241.658478,224.084961 241.413605,224.364594 240.877228,224.608734 
	C240.585709,224.573242 240.725296,224.151566 240.839142,223.960876 
z"/>
<path fill="#F7F7F8" opacity="1.000000" stroke="none" 
	d="
M77.168091,225.087402 
	C77.385597,225.040100 77.661217,225.244354 77.970352,225.714111 
	C77.744644,225.766052 77.485428,225.552490 77.168091,225.087402 
z"/>
<path fill="#F7F7F8" opacity="1.000000" stroke="none" 
	d="
M184.551468,230.466583 
	C184.585587,230.523270 184.517349,230.409912 184.551468,230.466583 
z"/>
<path fill="#F7F7F8" opacity="1.000000" stroke="none" 
	d="
M243.204590,231.832733 
	C243.126144,231.623535 243.311325,231.282715 243.768387,230.813538 
	C243.849594,231.023834 243.658905,231.362457 243.204590,231.832733 
z"/>
<path fill="#F7F7F8" opacity="1.000000" stroke="none" 
	d="
M71.822601,106.153320 
	C71.953201,106.361839 71.840141,106.701378 71.483658,107.169159 
	C71.353134,106.959724 71.466034,106.622040 71.822601,106.153320 
z"/>
<path fill="#305584" opacity="1.000000" stroke="none" 
	d="
M105.345802,72.995125 
	C107.039803,71.633911 109.112946,70.282021 111.527390,68.872147 
	C109.820770,70.210930 107.772858,71.607689 105.345802,72.995125 
z"/>
<path fill="#305584" opacity="1.000000" stroke="none" 
	d="
M79.311279,96.956779 
	C80.259598,95.288803 81.564552,93.599266 83.127121,91.741867 
	C82.145790,93.361076 80.906845,95.148148 79.311279,96.956779 
z"/>
<path fill="#305584" opacity="1.000000" stroke="none" 
	d="
M66.254822,118.964790 
	C66.385788,117.778099 66.854317,116.551781 67.587029,115.125992 
	C67.431595,116.259399 67.011986,117.592278 66.254822,118.964790 
z"/>
<path fill="#305584" opacity="1.000000" stroke="none" 
	d="
M97.207016,78.898323 
	C97.962532,77.892273 99.100868,76.929054 100.554565,75.891235 
	C99.776558,76.858139 98.683197,77.899643 97.207016,78.898323 
z"/>
<path fill="#305584" opacity="1.000000" stroke="none" 
	d="
M90.275879,84.944511 
	C90.891357,83.886162 91.898186,82.851601 93.181580,81.687294 
	C92.527840,82.694466 91.597534,83.831383 90.275879,84.944511 
z"/>
<path fill="#3D608A" opacity="1.000000" stroke="none" 
	d="
M227.490753,77.117905 
	C228.133987,77.633247 228.494476,78.037674 228.969193,78.691566 
	C227.766983,78.155022 226.450546,77.369019 225.116089,76.236305 
	C225.801376,76.262062 226.504700,76.634529 227.490753,77.117905 
z"/>
<path fill="#305787" opacity="1.000000" stroke="none" 
	d="
M235.766998,238.085876 
	C235.305115,239.033493 234.460129,239.950760 233.312103,240.959869 
	C233.800674,240.052994 234.592285,239.054245 235.766998,238.085876 
z"/>
<path fill="#305787" opacity="1.000000" stroke="none" 
	d="
M231.583282,241.980377 
	C231.222443,242.668121 230.498688,243.363831 229.479965,244.144577 
	C229.863449,243.482529 230.541901,242.735443 231.583282,241.980377 
z"/>
<path fill="#305787" opacity="1.000000" stroke="none" 
	d="
M248.777954,224.464142 
	C248.313721,225.108780 247.918167,225.475769 247.268311,225.944046 
	C247.478958,225.073593 247.943863,224.101852 248.767456,223.107635 
	C249.032974,223.452255 248.939819,223.819382 248.777954,224.464142 
z"/>
<path fill="#305584" opacity="1.000000" stroke="none" 
	d="
M77.206268,99.886047 
	C77.372299,99.017311 77.899406,98.134613 78.701096,97.102295 
	C78.506226,97.925819 78.036781,98.898956 77.206268,99.886047 
z"/>
<path fill="#305584" opacity="1.000000" stroke="none" 
	d="
M95.001541,80.682236 
	C95.196968,80.047836 95.747185,79.507469 96.581802,78.889526 
	C96.362915,79.466721 95.859619,80.121490 95.001541,80.682236 
z"/>
<path fill="#305584" opacity="1.000000" stroke="none" 
	d="
M75.120956,102.801659 
	C74.897369,102.526352 75.004532,102.157753 75.187042,101.508804 
	C75.638634,100.844559 76.014877,100.460663 76.639832,99.963989 
	C76.409607,100.803596 75.930656,101.755981 75.120956,102.801659 
z"/>
<path fill="#305584" opacity="1.000000" stroke="none" 
	d="
M80.687912,228.004410 
	C80.062881,227.798981 79.523003,227.240463 78.914253,226.392746 
	C79.487946,226.619476 80.130501,227.135406 80.687912,228.004410 
z"/>
<path fill="#234B7F" opacity="1.000000" stroke="none" 
	d="
M97.888657,244.902222 
	C97.234138,244.840210 96.565163,244.403152 95.747559,243.702606 
	C96.357353,243.801804 97.115776,244.164490 97.888657,244.902222 
z"/>
<path fill="#305787" opacity="1.000000" stroke="none" 
	d="
M239.826431,233.998001 
	C239.629700,234.731842 239.153732,235.342026 238.399597,236.053375 
	C238.596680,235.394470 239.071945,234.634415 239.826431,233.998001 
z"/>
<path fill="#3D608A" opacity="1.000000" stroke="none" 
	d="
M213.492157,68.834915 
	C214.221863,68.816696 214.953003,69.147903 215.860962,69.727684 
	C215.189728,69.712280 214.341644,69.448303 213.492157,68.834915 
z"/>
<path fill="#305584" opacity="1.000000" stroke="none" 
	d="
M64.786514,200.878494 
	C64.308128,200.513885 63.925083,199.772446 63.498413,198.713348 
	C63.930473,199.097672 64.406166,199.799667 64.786514,200.878494 
z"/>
<path fill="#305584" opacity="1.000000" stroke="none" 
	d="
M70.939354,213.747742 
	C70.451485,213.475342 69.997772,212.830093 69.470970,211.894165 
	C69.923096,212.193939 70.448303,212.784424 70.939354,213.747742 
z"/>
<path fill="#305584" opacity="1.000000" stroke="none" 
	d="
M69.820404,111.545280 
	C69.804321,110.806053 70.145256,110.067680 70.736404,109.148209 
	C70.716873,109.826782 70.447144,110.686462 69.820404,111.545280 
z"/>
<path fill="#305584" opacity="1.000000" stroke="none" 
	d="
M65.917831,203.782379 
	C65.476334,203.385941 65.080795,202.623718 64.656425,201.530945 
	C65.072990,201.939133 65.518387,202.677856 65.917831,203.782379 
z"/>
<path fill="#305584" opacity="1.000000" stroke="none" 
	d="
M101.166183,75.875153 
	C101.228142,75.471115 101.628677,75.082298 102.303253,74.605835 
	C102.219780,74.975586 101.862274,75.432976 101.166183,75.875153 
z"/>
<path fill="#305584" opacity="1.000000" stroke="none" 
	d="
M81.956871,229.739532 
	C81.566536,229.670868 81.157158,229.276108 80.664368,228.601135 
	C81.033249,228.685089 81.485542,229.049255 81.956871,229.739532 
z"/>
<path fill="#234B7F" opacity="1.000000" stroke="none" 
	d="
M94.523987,242.198532 
	C94.016357,242.213959 93.556610,241.891754 92.979874,241.309204 
	C93.432533,241.319550 94.002190,241.590240 94.523987,242.198532 
z"/>
<path fill="#305584" opacity="1.000000" stroke="none" 
	d="
M83.819778,91.506104 
	C83.799995,91.004395 84.107986,90.552002 84.673523,89.997566 
	C84.669899,90.448822 84.408730,91.002121 83.819778,91.506104 
z"/>
<path fill="#305787" opacity="1.000000" stroke="none" 
	d="
M221.809235,249.122772 
	C221.809921,249.530792 221.474884,249.950836 220.875153,250.459610 
	C220.898132,250.077164 221.185806,249.605972 221.809235,249.122772 
z"/>
<path fill="#305584" opacity="1.000000" stroke="none" 
	d="
M69.033966,112.811256 
	C68.865379,112.597107 68.968063,112.268021 69.274475,111.776199 
	C69.420540,111.974419 69.362892,112.335373 69.033966,112.811256 
z"/>
<path fill="#305787" opacity="1.000000" stroke="none" 
	d="
M228.963181,244.215149 
	C229.018692,244.444946 228.803055,244.719223 228.325195,245.055206 
	C228.272659,244.831146 228.482346,244.545380 228.963181,244.215149 
z"/>
<path fill="#234B7F" opacity="1.000000" stroke="none" 
	d="
M88.748978,237.016403 
	C88.494972,237.109680 88.189751,236.910904 87.793945,236.446625 
	C88.034821,236.362198 88.366295,236.543274 88.748978,237.016403 
z"/>
<path fill="#305787" opacity="1.000000" stroke="none" 
	d="
M237.904892,236.172516 
	C237.985336,236.395813 237.801376,236.698471 237.358017,237.087723 
	C237.279236,236.866837 237.459869,236.559357 237.904892,236.172516 
z"/>
<path fill="#234B7F" opacity="1.000000" stroke="none" 
	d="
M89.807098,238.053848 
	C89.558739,238.146393 89.227936,237.942871 88.794266,237.459961 
	C89.035820,237.373001 89.380241,237.565399 89.807098,238.053848 
z"/>
<path fill="#305787" opacity="1.000000" stroke="none" 
	d="
M236.909454,237.175064 
	C236.986511,237.399094 236.798859,237.699615 236.350433,238.082169 
	C236.274673,237.859985 236.459702,237.555786 236.909454,237.175064 
z"/>
<path fill="#234B7F" opacity="1.000000" stroke="none" 
	d="
M91.805740,239.957397 
	C91.580833,240.041519 91.247040,239.841827 90.785255,239.374191 
	C91.003792,239.295349 91.350311,239.484467 91.805740,239.957397 
z"/>
<path fill="#305787" opacity="1.000000" stroke="none" 
	d="
M210.266815,256.234711 
	C210.259857,256.470123 209.939117,256.705963 209.312775,256.972229 
	C209.322479,256.746796 209.637756,256.490997 210.266815,256.234711 
z"/>
<path fill="#234B7F" opacity="1.000000" stroke="none" 
	d="
M95.629967,243.121063 
	C95.288895,243.400635 95.006798,243.252762 94.670761,242.772873 
	C94.911713,242.644226 95.269089,242.728470 95.629967,243.121063 
z"/>
<path fill="#305787" opacity="1.000000" stroke="none" 
	d="
M222.928757,248.174957 
	C222.992172,248.382385 222.795776,248.677399 222.343201,249.066986 
	C222.281006,248.861908 222.474991,248.562225 222.928757,248.174957 
z"/>
<path fill="#3D608A" opacity="1.000000" stroke="none" 
	d="
M229.146606,79.161423 
	C229.360031,79.061775 229.676758,79.211670 230.092773,79.612366 
	C229.877991,79.712425 229.563950,79.561699 229.146606,79.161423 
z"/>
<path fill="#305584" opacity="1.000000" stroke="none" 
	d="
M93.872894,81.544525 
	C93.680687,81.169601 93.879456,80.922844 94.407364,80.683899 
	C94.482101,80.940720 94.324562,81.267708 93.872894,81.544525 
z"/>
<path fill="#305584" opacity="1.000000" stroke="none" 
	d="
M89.071129,85.858078 
	C89.007111,85.639641 89.210472,85.339508 89.679832,84.956245 
	C89.743393,85.174210 89.540955,85.475304 89.071129,85.858078 
z"/>
<path fill="#305584" opacity="1.000000" stroke="none" 
	d="
M86.120010,88.841148 
	C86.045959,88.627144 86.236198,88.320778 86.685371,87.914391 
	C86.757637,88.125839 86.570969,88.437317 86.120010,88.841148 
z"/>
<path fill="#305584" opacity="1.000000" stroke="none" 
	d="
M85.141968,89.859344 
	C85.062538,89.645912 85.237633,89.339821 85.671188,88.945175 
	C85.751930,89.159981 85.574203,89.463326 85.141968,89.859344 
z"/>
<path fill="#234B7F" opacity="1.000000" stroke="none" 
	d="
M87.759613,235.993683 
	C87.514320,236.081345 87.189491,235.869370 86.749969,235.381500 
	C86.983543,235.301758 87.331802,235.497894 87.759613,235.993683 
z"/>
<path fill="#305584" opacity="1.000000" stroke="none" 
	d="
M102.901245,74.571495 
	C102.846397,74.289398 103.080299,74.053123 103.566086,73.767624 
	C103.608635,74.018036 103.399307,74.317680 102.901245,74.571495 
z"/>
<path fill="#305584" opacity="1.000000" stroke="none" 
	d="
M104.012161,73.773468 
	C103.979996,73.545761 104.219421,73.296036 104.726776,73.007187 
	C104.757729,73.229195 104.520737,73.490318 104.012161,73.773468 
z"/>
<path fill="#234B7F" opacity="1.000000" stroke="none" 
	d="
M84.804199,232.949097 
	C84.579094,233.021011 84.271065,232.815628 83.866394,232.341995 
	C84.086922,232.273087 84.404091,232.472443 84.804199,232.949097 
z"/>
<path fill="#3D608A" opacity="1.000000" stroke="none" 
	d="
M217.310440,70.962448 
	C217.556976,70.666870 217.836731,70.747337 218.216919,71.117004 
	C218.024750,71.272484 217.700211,71.249908 217.310440,70.962448 
z"/>
<path fill="#3D608A" opacity="1.000000" stroke="none" 
	d="
M216.144531,70.199890 
	C216.345901,70.062218 216.678833,70.159981 217.141327,70.492233 
	C216.939301,70.629593 216.607681,70.532455 216.144531,70.199890 
z"/>
<path fill="#234B7F" opacity="1.000000" stroke="none" 
	d="
M85.820374,234.030579 
	C85.588181,234.098541 85.276787,233.878296 84.868469,233.382538 
	C85.094757,233.318802 85.417961,233.530609 85.820374,234.030579 
z"/>
<path fill="#305787" opacity="1.000000" stroke="none" 
	d="
M240.836853,233.134827 
	C240.918228,233.341766 240.756744,233.651489 240.341583,234.045944 
	C240.256622,233.832993 240.425293,233.535309 240.836853,233.134827 
z"/>
<path fill="#BF4841" opacity="1.000000" stroke="none" 
	d="
M156.827438,111.820221 
	C177.233887,93.501244 200.354614,89.899773 226.002350,99.448578 
	C226.169617,99.803642 225.934372,100.088211 225.537964,100.059067 
	C224.320343,99.933861 223.442322,99.993958 222.686218,99.718903 
	C203.742050,92.827583 185.666931,95.341774 168.326553,104.885384 
	C164.451721,107.017975 160.910522,109.756744 157.118469,112.117554 
	C157.021225,112.018677 156.827438,111.820221 156.827438,111.820221 
z"/>
<path fill="#BF4841" opacity="1.000000" stroke="none" 
	d="
M141.854782,188.133606 
	C132.574341,169.199463 133.321198,150.270935 141.945618,131.375092 
	C142.909546,129.263153 144.159683,127.281853 145.657471,125.138412 
	C146.037842,125.036858 146.241180,125.230324 146.158752,125.583649 
	C145.678070,127.024376 145.410141,128.182816 144.861862,129.188431 
	C137.614960,142.480209 135.196411,156.584274 138.049469,171.450607 
	C139.105881,176.955231 140.830933,182.331543 142.152069,187.858261 
	C142.053085,187.950150 141.854782,188.133606 141.854782,188.133606 
z"/>
<path fill="#BF4841" opacity="1.000000" stroke="none" 
	d="
M145.935974,124.940315 
	C149.292770,120.585373 152.751404,116.326981 156.518738,111.944405 
	C156.827438,111.820221 157.021225,112.018677 157.002625,112.439621 
	C153.403091,116.983818 149.822128,121.107071 146.241180,125.230324 
	C146.241180,125.230324 146.037842,125.036858 145.935974,124.940315 
z"/>
<path fill="#BF4841" opacity="1.000000" stroke="none" 
	d="
M226.287888,99.661880 
	C230.944916,102.011292 235.483688,104.502472 240.112762,107.384384 
	C240.203064,107.775124 239.957382,108.059036 239.593781,108.033356 
	C234.798248,105.367851 230.366302,102.728035 225.934372,100.088211 
	C225.934372,100.088211 226.169617,99.803642 226.287888,99.661880 
z"/>
<path fill="#BF4841" opacity="1.000000" stroke="none" 
	d="
M149.406616,200.564926 
	C146.919449,196.656769 144.432281,192.748611 141.899948,188.487030 
	C141.854782,188.133606 142.053085,187.950150 142.454926,188.000610 
	C145.245285,192.028671 147.633820,196.006302 149.864304,200.124817 
	C149.706253,200.265717 149.406616,200.564926 149.406616,200.564926 
z"/>
<path fill="#BF4841" opacity="1.000000" stroke="none" 
	d="
M168.923035,217.083496 
	C166.494949,215.789505 164.164185,214.390457 161.768555,212.623230 
	C161.703690,212.255035 162.015900,211.979355 162.377380,211.995850 
	C164.897675,213.597733 167.056488,215.183151 169.215302,216.768570 
	C169.215302,216.768570 169.020370,216.978439 168.923035,217.083496 
z"/>
<path fill="#BF4841" opacity="1.000000" stroke="none" 
	d="
M156.589355,208.360474 
	C154.739441,206.506149 152.889542,204.651825 151.024750,202.392609 
	C151.009842,201.987732 151.207520,201.795746 151.519165,201.909134 
	C153.584122,203.984955 155.337448,205.947372 156.965973,208.023071 
	C156.841171,208.136368 156.589355,208.360474 156.589355,208.360474 
z"/>
<path fill="#BF4841" opacity="1.000000" stroke="none" 
	d="
M160.480270,211.641754 
	C159.289841,210.734528 158.099411,209.827286 156.749176,208.640259 
	C156.589355,208.360474 156.841171,208.136368 157.278961,208.095703 
	C158.811737,209.036102 159.906723,210.017181 160.864624,211.153687 
	C160.727524,211.309097 160.480270,211.641754 160.480270,211.641754 
z"/>
<path fill="#BF4841" opacity="1.000000" stroke="none" 
	d="
M150.910736,202.083435 
	C150.427551,201.801666 150.043472,201.424179 149.533020,200.805817 
	C149.406616,200.564926 149.706253,200.265717 150.092377,200.287140 
	C150.721497,200.804291 150.964508,201.300018 151.207520,201.795746 
	C151.207520,201.795746 151.009842,201.987732 150.910736,202.083435 
z"/>
<path fill="#BF4841" opacity="1.000000" stroke="none" 
	d="
M240.329315,107.636185 
	C240.921600,107.791229 241.387650,108.085220 241.987122,108.623940 
	C242.120544,108.868675 241.931702,109.066025 241.579971,109.065567 
	C240.804626,108.729752 240.381012,108.394386 239.957382,108.059036 
	C239.957382,108.059036 240.203064,107.775124 240.329315,107.636185 
z"/>
<path fill="#BF4841" opacity="1.000000" stroke="none" 
	d="
M161.536362,212.379028 
	C161.105087,212.389877 160.882996,212.221512 160.591522,211.819839 
	C160.480270,211.641754 160.727524,211.309097 161.078400,211.266235 
	C161.694016,211.421677 161.889557,211.673676 162.015900,211.979355 
	C162.015900,211.979355 161.703690,212.255035 161.536362,212.379028 
z"/>
<path fill="#DF291D" opacity="1.000000" stroke="none" 
	d="
M162.377380,211.995850 
	C161.889557,211.673676 161.694016,211.421677 161.215500,211.110809 
	C159.906723,210.017181 158.811737,209.036102 157.403748,207.982407 
	C155.337448,205.947372 153.584122,203.984955 151.519165,201.909134 
	C150.964508,201.300018 150.721497,200.804291 150.250427,200.146240 
	C147.633820,196.006302 145.245285,192.028671 142.553909,187.908722 
	C140.830933,182.331543 139.105881,176.955231 138.049469,171.450607 
	C135.196411,156.584274 137.614960,142.480209 144.861862,129.188431 
	C145.410141,128.182816 145.678070,127.024376 146.158752,125.583649 
	C149.822128,121.107071 153.403091,116.983818 157.099884,112.538498 
	C160.910522,109.756744 164.451721,107.017975 168.326553,104.885384 
	C185.666931,95.341774 203.742050,92.827583 222.686218,99.718903 
	C223.442322,99.993958 224.320343,99.933861 225.537964,100.059067 
	C230.366302,102.728035 234.798248,105.367851 239.593781,108.033348 
	C240.381012,108.394386 240.804626,108.729752 241.484940,109.163651 
	C244.968689,112.495300 248.195740,115.728401 251.780457,118.971863 
	C252.462189,119.066185 252.694595,119.260040 252.888229,120.157776 
	C253.789032,121.668907 254.636963,122.586044 255.484909,123.503181 
	C255.484909,123.503181 255.490707,123.526848 255.502136,123.520126 
	C257.357239,127.867584 259.440155,132.137787 261.003204,136.590500 
	C267.779358,155.893845 266.870178,174.685532 256.855499,192.782394 
	C256.547913,193.338226 256.450989,194.010666 256.369537,194.996460 
	C256.483215,195.364151 256.454224,195.365799 256.078644,195.366241 
	C255.263016,196.351486 254.822968,197.336288 254.382904,198.321091 
	C254.382904,198.321091 253.981323,198.135605 253.855804,198.251770 
	C253.513443,198.945709 253.296585,199.523453 253.079742,200.101196 
	C253.079758,200.101212 253.009201,200.018753 252.690475,200.052826 
	C251.724731,201.179214 251.077713,202.271530 250.430695,203.363861 
	C250.430710,203.363861 250.278656,203.141373 250.033356,203.256775 
	C249.687607,203.710846 249.587158,204.049484 249.486725,204.388123 
	C249.486710,204.388123 249.308350,204.316040 249.026123,204.340637 
	C248.352112,205.067078 247.960342,205.768921 247.568558,206.470764 
	C247.568558,206.470764 247.462631,206.486038 247.088974,206.399414 
	C246.320084,207.015778 245.924866,207.718750 245.529648,208.421738 
	C245.529648,208.421738 245.431992,208.442963 245.066132,208.356949 
	C241.927063,210.653641 239.153870,213.036346 236.380676,215.419052 
	C236.380676,215.419052 236.355240,215.429581 236.360199,215.444397 
	C234.962463,215.792496 233.418381,215.854111 232.178162,216.499573 
	C212.024216,226.988632 191.776047,227.094543 171.383835,217.248856 
	C170.946396,217.037659 170.415894,217.019180 169.572052,216.839676 
	C167.056488,215.183151 164.897675,213.597733 162.377380,211.995850 
z"/>
<path fill="#BF4841" opacity="1.000000" stroke="none" 
	d="
M236.714569,215.343384 
	C239.153870,213.036346 241.927063,210.653641 245.054352,208.405518 
	C242.621796,210.782639 239.835144,213.025177 236.714569,215.343384 
z"/>
<path fill="#BF4841" opacity="1.000000" stroke="none" 
	d="
M250.715576,203.236816 
	C251.077713,202.271530 251.724731,201.179214 252.738647,200.077805 
	C252.403839,201.082413 251.702148,202.096115 250.715576,203.236816 
z"/>
<path fill="#BF4841" opacity="1.000000" stroke="none" 
	d="
M254.654633,198.174133 
	C254.822968,197.336288 255.263016,196.351486 256.072235,195.378281 
	C255.936371,196.268982 255.431351,197.148071 254.654633,198.174133 
z"/>
<path fill="#BF4841" opacity="1.000000" stroke="none" 
	d="
M245.788589,208.328339 
	C245.924866,207.718750 246.320084,207.015778 247.079163,206.452026 
	C246.977844,207.139145 246.512680,207.687042 245.788589,208.328339 
z"/>
<path fill="#BF4841" opacity="1.000000" stroke="none" 
	d="
M247.838318,206.369797 
	C247.960342,205.768921 248.352112,205.067078 249.093567,204.409210 
	C248.998184,205.058395 248.553131,205.663620 247.838318,206.369797 
z"/>
<path fill="#BF4841" opacity="1.000000" stroke="none" 
	d="
M253.347076,199.977081 
	C253.296585,199.523453 253.513443,198.945709 254.059967,198.335007 
	C254.131226,198.819031 253.872833,199.335999 253.347076,199.977081 
z"/>
<path fill="#BF4841" opacity="1.000000" stroke="none" 
	d="
M249.708115,204.298157 
	C249.587158,204.049484 249.687607,203.710846 250.083221,203.381958 
	C250.355728,203.733704 250.206100,204.005859 249.708115,204.298157 
z"/>
<path fill="#BF4841" opacity="1.000000" stroke="none" 
	d="
M255.412811,123.197998 
	C254.636963,122.586044 253.789032,121.668907 252.947388,120.383865 
	C253.749374,120.974907 254.545044,121.933861 255.412811,123.197998 
z"/>
</svg>