<?xml version="1.0" encoding="UTF-8"?>
<svg xmlns="http://www.w3.org/2000/svg" version="1.1" viewBox="0 0 1025.2 335.6">
  <defs>
    <style>
      .cls-1 {
        fill: #6d6e71;
      }

      .cls-2 {
        fill: #73bf43;
      }

      .cls-3 {
        fill: #6c6c71;
      }

      .cls-4 {
        fill: #0f75bc;
      }
    </style>
  </defs>
  <!-- Generator: Adobe Illustrator 28.6.0, SVG Export Plug-In . SVG Version: 1.2.0 Build 709)  -->
  <g>
    <g id="Capa_1">
      <g>
        <g>
          <g>
            <path class="cls-4" d="M367.9,143.4c-13.5,13.5-13.5,35.3,0,48.8,13.5,13.5,35.3,13.5,48.8,0l121.6-121.6c13.5-13.5,13.5-35.3,0-48.8-13.5-13.5-35.3-13.5-48.8,0l-121.6,121.6Z"/>
            <path class="cls-4" d="M416.7,143.4c-13.5-13.5-35.3-13.5-48.8,0-13.5,13.5-13.5,35.3,0,48.8l121.6,121.6c13.5,13.5,35.3,13.5,48.8,0,13.5-13.5,13.5-35.3,0-48.8l-121.6-121.6Z"/>
          </g>
          <g>
            <path class="cls-2" d="M428.8,192.2c13.5-13.5,13.5-35.3,0-48.8-13.5-13.5-35.3-13.5-48.8,0l-121.6,121.6c-13.5,13.5-13.5,35.3,0,48.8,13.5,13.5,35.3,13.5,48.8,0l121.6-121.6Z"/>
            <path class="cls-2" d="M380,192.2c13.5,13.5,35.3,13.5,48.8,0,13.5-13.5,13.5-35.3,0-48.8l-121.6-121.6c-13.5-13.5-35.3-13.5-48.8,0-13.5,13.5-13.5,35.3,0,48.8l121.6,121.6Z"/>
          </g>
        </g>
        <g>
          <path class="cls-1" d="M149,183.6H23.1c1.2,14.5,7.1,27.6,17,37.7,11,11.3,25.6,17.9,41.2,17.9,33.4,0,49.2-26.1,49.2-26.1l8.4,5.5c-12.5,18.9-33.6,31.3-57.6,31.3h0c-38.4,0-69.5-31.8-69.5-71.1s31.1-71.1,69.5-71.1,67.9,31.8,67.9,71.1,0,3.5-.2,4.8ZM137.8,174.1c-1.2-14.5-5.9-27.6-15.8-37.7-11-11.3-25.2-17.9-40.8-17.9s-30.6,6.6-41.6,17.9c-9.9,10.1-15.4,23.2-16.6,37.7h114.7Z"/>
          <path class="cls-1" d="M268.8,110.6l-58.6,136.3h-12.9l-58.6-136.3h12.1l53,123.1,53-123.1h12.1Z"/>
        </g>
        <g>
          <path class="cls-3" d="M544.5,198.2c12.1,0,19.4-4.4,19.4-12.4s-11.2-11.9-20.6-13.5c-11.7-2.1-25.3-4.9-25.3-17.3s10.2-17.2,23.8-17.2,19.7,3.3,25.3,6.6l-2.6,5.2c-4.9-3.4-16-6.3-22.8-6.3-10.3,0-18,3.1-18,11.6s6.4,9.4,20.6,11.9c11.5,2,25.3,6.1,25.3,19s-9.8,18-25.1,18-19.3-2.3-27.9-8.1l2.7-5.5c7.4,5.6,15.1,7.9,25.1,7.9Z"/>
          <path class="cls-3" d="M616.1,137.8c19.5,0,33.9,13.8,33.9,32.9s-14.1,33.1-33.5,33.1-34.3-13.7-34.3-33.1,14.3-32.9,33.9-32.9ZM616.1,143.4c-16.3,0-28.1,11.6-28.1,27.5s11.7,27.3,28.4,27.3,27.9-11.3,27.9-27.5-11.7-27.3-28.1-27.3Z"/>
          <path class="cls-3" d="M681.7,108.3c3.5,0,8.1,1.2,11.1,2.9-.7,1.7-1.3,3.1-2.1,4.7-2.2-1-5.9-2.1-9-2.1s-6.9,2.2-6.9,10.9v13.5h12.4v5.1h-12.4v59.6h-5.6v-59.6h-9.6v-5.1h9.6v-14.1c0-9.5,2.9-15.9,12.5-15.9Z"/>
          <path class="cls-3" d="M701.1,122.3h5.6v16h17.7v5.1h-17.7v44.9c0,7.6,2.6,9.9,7.4,9.9s6.4-.5,11.7-2.7c.5,1.7,1,3.4,1.7,5.1-6.3,2.6-9.1,3.3-13.2,3.3-8.7,0-13.3-3.5-13.3-14.8v-45.6h-8.2v-5.1h8.2v-16Z"/>
          <path class="cls-3" d="M739.3,138.3l25.9,55.9,13.2-27.9-13.2-28h6.3l10.2,22.4,9.6-22.4h6.3c-4.3,9.5-8.6,19-12.8,28.7l12.6,27.2,26-55.9h6.3l-30.2,64.7h-4l-14.1-30.2c-4.7,10-9.4,20.2-14.1,30.2h-4l-30.2-64.7h6.3Z"/>
          <path class="cls-3" d="M864.6,143.4c-13,0-20.3,6.4-22.4,9.5l-3.9-3.6c2.7-4.6,12-11.5,26.3-11.5s26.6,6.3,26.6,22.8v24.2c0,6.9.9,11.2,4.3,15.1l-4,3c-3.1-2.2-5.1-9.1-5.1-13.3-3.9,9.8-14.5,14.2-28.1,14.2s-22-5.9-22-17.8c0-18.2,19.3-19.4,30.6-19.4h18.8c0,.1,0-5.7,0-5.7,0-12.4-11.1-17.5-21-17.5ZM841.9,186c0,7.3,5.1,12.2,15.4,12.2,18.1,0,28.4-6.5,28.3-25.9l-18.2-.3c-17.8-.1-25.4,3.8-25.4,13.9Z"/>
          <path class="cls-3" d="M916.7,138.3v13.3c3.3-7.6,13.7-13.9,24.2-13.9s1.8,0,3.4.3l-1.6,5.5c-.4-.1-.9-.1-1.3-.1-12.1,0-24.7,7.9-24.7,22.1v37.6h-5.6v-64.7h5.6Z"/>
          <path class="cls-3" d="M984.7,198.2c12.2,0,19-5.9,22.1-9.4,1.4,1.3,2.9,2.5,4.3,3.6-5.1,5.1-14.3,11.3-27,11.3-20.2,0-33.3-13.7-33.3-33.3s14.2-32.7,31.4-32.7,31.3,13.2,31.3,31.8,0,2.1-.1,2.7h-56.7c.3,15.9,12,25.9,28,25.9ZM982.3,143.4c-15.1,0-25.3,11.1-25.7,23.7h50.9c-.7-14.5-10.2-23.7-25.3-23.7Z"/>
        </g>
      </g>
    </g>
  </g>
</svg>